<?xml version="1.0" encoding="UTF-8" standalone="no"?>
<!-- Created with Inkscape (http://www.inkscape.org/) -->

<svg
   width="1920"
   height="1080"
   viewBox="0 0 508 285.74999"
   version="1.1"
   id="svg1"
   inkscape:version="1.3.2 (091e20ef0f, 2023-11-25)"
   sodipodi:docname="index.svg"
   xmlns:inkscape="http://www.inkscape.org/namespaces/inkscape"
   xmlns:sodipodi="http://sodipodi.sourceforge.net/DTD/sodipodi-0.dtd"
   xmlns="http://www.w3.org/2000/svg"
   xmlns:svg="http://www.w3.org/2000/svg">
  <sodipodi:namedview
     id="namedview1"
     pagecolor="#ffffff"
     bordercolor="#000000"
     borderopacity="0.25"
     inkscape:showpageshadow="2"
     inkscape:pageopacity="0.0"
     inkscape:pagecheckerboard="0"
     inkscape:deskcolor="#d1d1d1"
     inkscape:document-units="px"
     inkscape:zoom="1.847629"
     inkscape:cx="281.98302"
     inkscape:cy="808.87451"
     inkscape:window-width="3840"
     inkscape:window-height="2160"
     inkscape:window-x="0"
     inkscape:window-y="0"
     inkscape:window-maximized="0"
     inkscape:current-layer="layer1" />
  <defs
     id="defs1" />
  <g
     inkscape:label="Layer 1"
     inkscape:groupmode="layer"
     id="layer1">
    <rect
       style="fill:#000000;stroke-width:0.264583;fill-opacity:1"
       id="rect1"
       width="508"
       height="285.75"
       x="0"
       y="0"
       inkscape:label="bg"
       rx="6.614583" />
    <rect
       style="fill:#262626;stroke-width:0.264583;fill-opacity:1"
       id="rect2"
       width="163.15981"
       height="275.16666"
       x="5.2916565"
       y="5.2916632"
       ry="13.229166" />
    <rect
       style="fill:#ffffff;stroke-width:0.264583;fill-opacity:1"
       id="rect2-5"
       width="163.15981"
       height="275.16666"
       x="172.42009"
       y="5.2916694"
       rx="13.229166" />
    <rect
       style="fill:#ffffff;stroke-width:0.264583"
       id="rect2-2"
       width="163.15981"
       height="275.16666"
       x="339.54852"
       y="5.2916794"
       rx="13.229166" />
    <rect
       style="fill:#000000;stroke-width:0.17322"
       id="rect3"
       width="300.34064"
       height="28.809322"
       x="103.82967"
       y="-1.3322676e-15"
       rx="6.614583" />
    <path
       d="m 112.35608,9.5999106 h 1.2883 v 6.0120644 q 0,0.383423 -0.0153,0.84353 0,0.44477 -0.0153,0.88954 -0.0153,0.44477 -0.046,0.797519 -0.0153,0.337412 -0.0307,0.521454 h 0.0614 l 6.0274,-9.0641074 h 1.53369 V 20.550457 h -1.2883 V 14.59974 q 0,-0.414096 0.0153,-0.88954 0.0153,-0.490781 0.0307,-0.935551 0.0307,-0.460107 0.046,-0.812856 0.0153,-0.352749 0.0307,-0.521454 h -0.0614 l -6.04274,9.110118 h -1.53369 z m 12.929,2.7299684 v 3.420128 h 4.46304 v -3.420128 h 1.34965 v 8.220578 h -1.34965 v -3.665519 h -4.46304 v 3.665519 h -1.34964 v -8.220578 z m 14.0946,1.13493 h -2.68396 v 7.085648 h -1.33431 v -7.085648 h -2.65328 v -1.13493 h 6.67155 z m 4.64707,-1.288299 q 1.05825,0 1.80976,0.460107 0.76684,0.460107 1.1656,1.303636 0.4141,0.828193 0.4141,1.947786 v 0.812856 h -5.62864 q 0.0307,1.395658 0.70549,2.131829 0.69017,0.720835 1.91712,0.720835 0.78218,0 1.38032,-0.138033 0.61347,-0.153369 1.25762,-0.429433 v 1.180942 q -0.62881,0.276064 -1.24229,0.398759 -0.61347,0.138032 -1.457,0.138032 -1.1656,0 -2.07048,-0.475444 -0.88954,-0.475444 -1.39566,-1.410995 -0.49078,-0.950887 -0.49078,-2.315872 0,-1.349647 0.44477,-2.315871 0.46011,-0.966225 1.27296,-1.48768 0.82819,-0.521454 1.91711,-0.521454 z m -0.0153,1.104257 q -0.96623,0 -1.53369,0.628812 -0.55213,0.613476 -0.65949,1.717733 h 4.18697 q 0,-0.705497 -0.21471,-1.226952 -0.21472,-0.521454 -0.65949,-0.812855 -0.42943,-0.306738 -1.11959,-0.306738 z m 9.40151,-1.104257 q 1.51835,0 2.43856,1.058246 0.93555,1.058246 0.93555,3.190075 0,1.395658 -0.42943,2.361883 -0.4141,0.950887 -1.18094,1.441668 -0.75151,0.475444 -1.77908,0.475444 -0.62881,0 -1.1196,-0.168706 -0.49078,-0.168706 -0.84352,-0.429433 -0.33742,-0.276064 -0.58281,-0.598139 h -0.092 q 0.0307,0.260727 0.0614,0.659487 0.0307,0.398759 0.0307,0.69016 v 3.374118 h -1.34964 V 12.329879 h 1.10425 l 0.18405,1.119593 h 0.0613 q 0.24539,-0.352748 0.58281,-0.644149 0.35274,-0.291401 0.82819,-0.460107 0.49078,-0.168706 1.15027,-0.168706 z m -0.24539,1.13493 q -0.8282,0 -1.33432,0.322075 -0.50611,0.306738 -0.73617,0.935551 -0.23005,0.628813 -0.24539,1.595038 v 0.260727 q 0,1.012235 0.21472,1.717733 0.21472,0.705497 0.72083,1.073583 0.52146,0.368085 1.411,0.368085 0.75151,0 1.22695,-0.414096 0.49078,-0.414096 0.72084,-1.119594 0.24539,-0.720834 0.24539,-1.641048 0,-1.410995 -0.55213,-2.254524 -0.53679,-0.84353 -1.67172,-0.84353 z m 8.88006,-1.119593 q 1.50301,0 2.22385,0.659486 0.72083,0.659487 0.72083,2.101156 v 5.597968 h -0.98156 l -0.26073,-1.165604 h -0.0614 q -0.35274,0.44477 -0.73617,0.751508 -0.36808,0.291401 -0.85886,0.429433 -0.47545,0.138032 -1.16561,0.138032 -0.73617,0 -1.33431,-0.260727 -0.5828,-0.260728 -0.92021,-0.797519 -0.33741,-0.552128 -0.33741,-1.380321 0,-1.226952 0.96622,-1.886439 0.96623,-0.674823 2.97536,-0.736171 l 1.39566,-0.04601 v -0.49078 q 0,-1.027573 -0.44477,-1.426332 -0.44477,-0.398759 -1.25763,-0.398759 -0.64415,0 -1.22695,0.199379 -0.5828,0.184043 -1.08892,0.429433 l -0.4141,-1.012235 q 0.5368,-0.291401 1.27297,-0.490781 0.73617,-0.214716 1.53369,-0.214716 z m 0.39876,4.386353 q -1.53369,0.06135 -2.13183,0.490781 -0.58281,0.429433 -0.58281,1.211615 0,0.69016 0.4141,1.012235 0.42943,0.322075 1.08892,0.322075 1.04291,0 1.73307,-0.567465 0.69016,-0.582802 0.69016,-1.779081 v -0.736171 z m 9.95365,-4.248321 h 1.47235 l -3.51215,3.95692 3.80355,4.263658 h -1.56437 l -3.71153,-4.171637 v 4.171637 h -1.34964 v -8.220578 h 1.34964 v 3.987594 z m 8.92607,1.13493 h -2.68396 v 7.085648 h -1.33431 v -7.085648 h -2.65328 v -1.13493 h 6.67155 z m 2.89867,3.880236 q 0,0.138032 -0.0153,0.398759 0,0.245391 -0.0153,0.536792 -0.0153,0.276064 -0.0307,0.536791 -0.0153,0.245391 -0.0307,0.39876 l 4.40169,-6.886268 h 1.65639 v 8.220578 h -1.25763 v -4.84646 q 0,-0.245391 0,-0.64415 0.0153,-0.39876 0.0307,-0.782182 0.0153,-0.398759 0.0307,-0.598139 l -4.37102,6.870931 h -1.67172 v -8.220578 h 1.27296 z m 15.19886,-2.944685 q 0,0.766845 -0.4601,1.196278 -0.46011,0.429434 -1.18094,0.582803 v 0.06135 q 0.76684,0.107358 1.33431,0.552129 0.56746,0.429433 0.56746,1.349647 0,0.69016 -0.33741,1.242289 -0.33741,0.536791 -1.07358,0.858866 -0.73618,0.306738 -1.91712,0.306738 h -3.54282 v -8.220578 h 3.52749 q 0.8742,0 1.56436,0.199379 0.7055,0.184043 1.10426,0.64415 0.41409,0.44477 0.41409,1.226952 z m -1.13493,3.742204 q 0,-0.705498 -0.53679,-1.012236 -0.53679,-0.306738 -1.5797,-0.306738 h -2.00913 v 2.637947 h 2.0398 q 1.01224,0 1.54903,-0.291401 0.53679,-0.306738 0.53679,-1.027572 z m -0.23005,-3.573498 q 0,-0.582802 -0.42943,-0.843529 -0.4141,-0.276065 -1.36499,-0.276065 h -2.10115 v 2.254525 h 1.85576 q 0.9969,0 1.51835,-0.276065 0.52146,-0.276064 0.52146,-0.858866 z m 4.93849,-2.239187 v 3.420128 h 4.46304 v -3.420128 h 1.34964 v 8.220578 h -1.34964 v -3.665519 h -4.46304 v 3.665519 h -1.34965 v -8.220578 z m 11.53333,-0.138032 q 1.50302,0 2.22385,0.659486 0.72084,0.659487 0.72084,2.101156 v 5.597968 h -0.98156 l -0.26073,-1.165604 h -0.0614 q -0.35275,0.44477 -0.73617,0.751508 -0.36809,0.291401 -0.85887,0.429433 -0.47544,0.138032 -1.1656,0.138032 -0.73617,0 -1.33431,-0.260727 -0.5828,-0.260728 -0.92021,-0.797519 -0.33742,-0.552128 -0.33742,-1.380321 0,-1.226952 0.96623,-1.886439 0.96622,-0.674823 2.97536,-0.736171 l 1.39565,-0.04601 v -0.49078 q 0,-1.027573 -0.44477,-1.426332 -0.44477,-0.398759 -1.25762,-0.398759 -0.64415,0 -1.22695,0.199379 -0.58281,0.184043 -1.08892,0.429433 l -0.4141,-1.012235 q 0.53679,-0.291401 1.27296,-0.490781 0.73617,-0.214716 1.53369,-0.214716 z m 0.39876,4.386353 q -1.53369,0.06135 -2.13183,0.490781 -0.5828,0.429433 -0.5828,1.211615 0,0.69016 0.4141,1.012235 0.42943,0.322075 1.08892,0.322075 1.04291,0 1.73307,-0.567465 0.69016,-0.582802 0.69016,-1.779081 v -0.736171 z m 5.59798,3.972257 h -1.56436 l 2.34654,-3.450802 q -0.47544,-0.122696 -0.92021,-0.383423 -0.44477,-0.276064 -0.72083,-0.751508 -0.27607,-0.490781 -0.27607,-1.211615 0,-1.180941 0.79752,-1.794417 0.79752,-0.628813 2.11649,-0.628813 h 3.68086 v 8.220578 h -1.34965 v -3.26676 h -1.9938 z m 0.16871,-5.782011 q 0,0.705497 0.52145,1.058246 0.53679,0.337412 1.48768,0.337412 h 1.93245 v -2.714632 h -2.19318 q -0.93555,0 -1.34964,0.368086 -0.39876,0.368086 -0.39876,0.950888 z m 16.74789,-2.438567 h 1.47234 l -3.51215,3.95692 3.80356,4.263658 h -1.56437 l -3.71153,-4.171637 v 4.171637 h -1.34965 v -8.220578 h 1.34965 v 3.987594 z m 6.3648,-0.138032 q 1.50302,0 2.22385,0.659486 0.72084,0.659487 0.72084,2.101156 v 5.597968 h -0.98157 l -0.26072,-1.165604 h -0.0614 q -0.35275,0.44477 -0.73617,0.751508 -0.36809,0.291401 -0.85887,0.429433 -0.47544,0.138032 -1.1656,0.138032 -0.73617,0 -1.33431,-0.260727 -0.58281,-0.260728 -0.92022,-0.797519 -0.33741,-0.552128 -0.33741,-1.380321 0,-1.226952 0.96623,-1.886439 0.96622,-0.674823 2.97535,-0.736171 l 1.39566,-0.04601 v -0.49078 q 0,-1.027573 -0.44477,-1.426332 -0.44477,-0.398759 -1.25762,-0.398759 -0.64415,0 -1.22696,0.199379 -0.5828,0.184043 -1.08892,0.429433 l -0.41409,-1.012235 q 0.53679,-0.291401 1.27296,-0.490781 0.73617,-0.214716 1.53369,-0.214716 z m 0.39876,4.386353 q -1.53369,0.06135 -2.13183,0.490781 -0.5828,0.429433 -0.5828,1.211615 0,0.69016 0.41409,1.012235 0.42944,0.322075 1.08892,0.322075 1.04291,0 1.73307,-0.567465 0.69017,-0.582802 0.69017,-1.779081 v -0.736171 z m 9.00278,-4.40169 q 1.51835,0 2.43857,1.058246 0.93555,1.058246 0.93555,3.190075 0,1.395658 -0.42944,2.361883 -0.41409,0.950887 -1.18094,1.441668 -0.75151,0.475444 -1.77908,0.475444 -0.62881,0 -1.11959,-0.168706 -0.49078,-0.168706 -0.84353,-0.429433 -0.33741,-0.276064 -0.5828,-0.598139 h -0.092 q 0.0307,0.260727 0.0614,0.659487 0.0307,0.398759 0.0307,0.69016 v 3.374118 h -1.34965 V 12.329879 h 1.10426 l 0.18404,1.119593 h 0.0613 q 0.24539,-0.352748 0.5828,-0.644149 0.35275,-0.291401 0.82819,-0.460107 0.49078,-0.168706 1.15027,-0.168706 z m -0.24539,1.13493 q -0.82819,0 -1.33431,0.322075 -0.50612,0.306738 -0.73617,0.935551 -0.23006,0.628813 -0.24539,1.595038 v 0.260727 q 0,1.012235 0.21471,1.717733 0.21472,0.705497 0.72084,1.073583 0.52145,0.368085 1.41099,0.368085 0.75151,0 1.22695,-0.414096 0.49078,-0.414096 0.72084,-1.119594 0.24539,-0.720834 0.24539,-1.641048 0,-1.410995 -0.55213,-2.254524 -0.53679,-0.84353 -1.67172,-0.84353 z m 11.28796,0.153369 h -2.68396 v 7.085648 h -1.33431 v -7.085648 h -2.65329 v -1.13493 h 6.67156 z m 4.73909,-1.272962 q 1.50301,0 2.22385,0.659486 0.72083,0.659487 0.72083,2.101156 v 5.597968 h -0.98156 l -0.26073,-1.165604 h -0.0613 q -0.35275,0.44477 -0.73618,0.751508 -0.36808,0.291401 -0.85886,0.429433 -0.47545,0.138032 -1.16561,0.138032 -0.73617,0 -1.33431,-0.260727 -0.5828,-0.260728 -0.92021,-0.797519 -0.33741,-0.552128 -0.33741,-1.380321 0,-1.226952 0.96622,-1.886439 0.96623,-0.674823 2.97536,-0.736171 l 1.39566,-0.04601 v -0.49078 q 0,-1.027573 -0.44477,-1.426332 -0.44477,-0.398759 -1.25763,-0.398759 -0.64415,0 -1.22695,0.199379 -0.5828,0.184043 -1.08892,0.429433 l -0.4141,-1.012235 q 0.5368,-0.291401 1.27297,-0.490781 0.73617,-0.214716 1.53369,-0.214716 z m 0.39876,4.386353 q -1.53369,0.06135 -2.13183,0.490781 -0.5828,0.429433 -0.5828,1.211615 0,0.69016 0.41409,1.012235 0.42944,0.322075 1.08892,0.322075 1.04291,0 1.73307,-0.567465 0.69016,-0.582802 0.69016,-1.779081 v -0.736171 z"
       id="text3"
       style="font-size:15.3369px;fill:#ffffff;stroke-width:1.27808"
       aria-label="Интерактивная карта" />
    <path
       d="m 279.74298,17.345045 q 0,0.138032 -0.0153,0.398759 0,0.245391 -0.0153,0.536792 -0.0153,0.276064 -0.0307,0.536791 -0.0153,0.245391 -0.0307,0.39876 l 4.40169,-6.886268 h 1.65638 v 8.220578 h -1.25762 v -4.84646 q 0,-0.245391 0,-0.64415 0.0153,-0.39876 0.0307,-0.782182 0.0153,-0.398759 0.0307,-0.598139 l -4.37102,6.870931 h -1.67172 v -8.220578 h 1.27296 z m 11.88609,3.358781 q -1.08892,0 -1.94778,-0.44477 -0.84353,-0.44477 -1.33432,-1.380321 -0.47544,-0.935551 -0.47544,-2.392556 0,-1.518354 0.50612,-2.469241 0.50612,-0.950888 1.36498,-1.395658 0.87421,-0.44477 1.97846,-0.44477 0.62882,0 1.21162,0.138032 0.5828,0.122695 0.95089,0.306738 l -0.4141,1.119594 q -0.36809,-0.138033 -0.85887,-0.260728 -0.49078,-0.122695 -0.92021,-0.122695 -0.82819,0 -1.36498,0.352749 -0.5368,0.352748 -0.79752,1.042909 -0.26073,0.69016 -0.26073,1.717733 0,0.981561 0.26073,1.671722 0.26072,0.69016 0.78218,1.042909 0.52145,0.352749 1.30363,0.352749 0.67483,0 1.18095,-0.138032 0.52145,-0.138033 0.95088,-0.337412 v 1.196278 q -0.41409,0.214717 -0.92021,0.322075 -0.49078,0.122695 -1.19628,0.122695 z m 9.73893,-7.239017 h -2.68396 v 7.085648 h -1.33431 v -7.085648 h -2.65329 v -1.13493 h 6.67156 z m 8.61933,2.960022 q 0,1.027572 -0.27607,1.825091 -0.26072,0.782182 -0.76684,1.33431 -0.49078,0.552129 -1.21162,0.84353 -0.70549,0.276064 -1.5797,0.276064 -0.81285,0 -1.50301,-0.276064 -0.69016,-0.291401 -1.19628,-0.84353 -0.50612,-0.552128 -0.79752,-1.33431 -0.27606,-0.797519 -0.27606,-1.825091 0,-1.364984 0.4601,-2.300535 0.46011,-0.950888 1.31898,-1.441669 0.85886,-0.506117 2.0398,-0.506117 1.1196,0 1.96313,0.506117 0.85886,0.490781 1.33431,1.441669 0.49078,0.935551 0.49078,2.300535 z m -6.21145,0 q 0,0.966225 0.24539,1.687059 0.26073,0.705497 0.79752,1.08892 0.53679,0.383422 1.36499,0.383422 0.82819,0 1.36498,-0.383422 0.53679,-0.383423 0.78218,-1.08892 0.26073,-0.720834 0.26073,-1.687059 0,-0.981562 -0.26073,-1.671722 -0.26072,-0.690161 -0.79752,-1.058246 -0.52145,-0.383423 -1.36498,-0.383423 -1.25763,0 -1.82509,0.828193 -0.56747,0.828192 -0.56747,2.285198 z m 12.25418,-4.248321 q 1.51835,0 2.43857,1.058246 0.93555,1.058246 0.93555,3.190075 0,1.395658 -0.42944,2.361883 -0.41409,0.950887 -1.18094,1.441668 -0.75151,0.475444 -1.77908,0.475444 -0.62881,0 -1.11959,-0.168706 -0.49078,-0.168706 -0.84353,-0.429433 -0.33741,-0.276064 -0.5828,-0.598139 h -0.092 q 0.0307,0.260727 0.0614,0.659487 0.0307,0.398759 0.0307,0.69016 v 3.374118 h -1.34965 V 12.329879 h 1.10426 l 0.18404,1.119593 h 0.0614 q 0.24539,-0.352748 0.5828,-0.644149 0.35275,-0.291401 0.82819,-0.460107 0.49078,-0.168706 1.15027,-0.168706 z m -0.24539,1.13493 q -0.82819,0 -1.33431,0.322075 -0.50612,0.306738 -0.73617,0.935551 -0.23006,0.628813 -0.24539,1.595038 v 0.260727 q 0,1.012235 0.21471,1.717733 0.21472,0.705497 0.72084,1.073583 0.52145,0.368085 1.41099,0.368085 0.75151,0 1.22695,-0.414096 0.49078,-0.414096 0.72084,-1.119594 0.24539,-0.720834 0.24539,-1.641048 0,-1.410995 -0.55213,-2.254524 -0.53679,-0.84353 -1.67172,-0.84353 z m 7.03963,4.033605 q 0,0.138032 -0.0153,0.398759 0,0.245391 -0.0153,0.536792 -0.0153,0.276064 -0.0307,0.536791 -0.0153,0.245391 -0.0307,0.39876 l 4.40169,-6.886268 h 1.65639 v 8.220578 h -1.25763 v -4.84646 q 0,-0.245391 0,-0.64415 0.0153,-0.39876 0.0307,-0.782182 0.0153,-0.398759 0.0307,-0.598139 l -4.37102,6.870931 h -1.67172 v -8.220578 h 1.27296 z m 9.86162,0 q 0,0.138032 -0.0153,0.398759 0,0.245391 -0.0153,0.536792 -0.0153,0.276064 -0.0307,0.536791 -0.0153,0.245391 -0.0307,0.39876 l 4.40169,-6.886268 h 1.65639 v 8.220578 h -1.25763 v -4.84646 q 0,-0.245391 0,-0.64415 0.0153,-0.39876 0.0307,-0.782182 0.0153,-0.398759 0.0307,-0.598139 l -4.37102,6.870931 h -1.67172 v -8.220578 h 1.27296 z m 15.65897,-7.7451344 q 2.14717,0 3.12873,0.8435294 0.98156,0.84353 0.98156,2.37722 0,0.674823 -0.23005,1.303636 -0.21472,0.613476 -0.72083,1.104257 -0.50612,0.490781 -1.34965,0.782182 -0.84353,0.276064 -2.07048,0.276064 h -1.25763 v 4.263658 h -1.38032 V 9.5999106 Z m -0.12269,1.1809414 h -1.39566 v 4.325006 h 1.10426 q 1.04291,0 1.73307,-0.214717 0.69016,-0.230054 1.02757,-0.720834 0.33741,-0.490781 0.33741,-1.2883 0,-1.058246 -0.67482,-1.579701 -0.67483,-0.521454 -2.13183,-0.521454 z m 13.46579,5.643979 q 0,1.027572 -0.27607,1.825091 -0.26072,0.782182 -0.76684,1.33431 -0.49078,0.552129 -1.21162,0.84353 -0.70549,0.276064 -1.5797,0.276064 -0.81285,0 -1.50301,-0.276064 -0.69016,-0.291401 -1.19628,-0.84353 -0.50612,-0.552128 -0.79752,-1.33431 -0.27606,-0.797519 -0.27606,-1.825091 0,-1.364984 0.4601,-2.300535 0.46011,-0.950888 1.31898,-1.441669 0.85886,-0.506117 2.0398,-0.506117 1.1196,0 1.96313,0.506117 0.85886,0.490781 1.33431,1.441669 0.49078,0.935551 0.49078,2.300535 z m -6.21145,0 q 0,0.966225 0.24539,1.687059 0.26073,0.705497 0.79752,1.08892 0.5368,0.383422 1.36499,0.383422 0.82819,0 1.36498,-0.383422 0.53679,-0.383423 0.78218,-1.08892 0.26073,-0.720834 0.26073,-1.687059 0,-0.981562 -0.26073,-1.671722 -0.26072,-0.690161 -0.79752,-1.058246 -0.52145,-0.383423 -1.36498,-0.383423 -1.25763,0 -1.82509,0.828193 -0.56747,0.828192 -0.56747,2.285198 z m 11.6407,4.278995 q -1.08892,0 -1.94778,-0.44477 -0.84353,-0.44477 -1.33431,-1.380321 -0.47545,-0.935551 -0.47545,-2.392556 0,-1.518354 0.50612,-2.469241 0.50612,-0.950888 1.36498,-1.395658 0.87421,-0.44477 1.97846,-0.44477 0.62882,0 1.21162,0.138032 0.5828,0.122695 0.95089,0.306738 l -0.4141,1.119594 q -0.36808,-0.138033 -0.85887,-0.260728 -0.49078,-0.122695 -0.92021,-0.122695 -0.82819,0 -1.36498,0.352749 -0.53679,0.352748 -0.79752,1.042909 -0.26073,0.69016 -0.26073,1.717733 0,0.981561 0.26073,1.671722 0.26073,0.69016 0.78218,1.042909 0.52145,0.352749 1.30364,0.352749 0.67482,0 1.18094,-0.138032 0.52145,-0.138033 0.95089,-0.337412 v 1.196278 q -0.4141,0.214717 -0.92022,0.322075 -0.49078,0.122695 -1.19628,0.122695 z m 7.36171,0 q -1.08892,0 -1.94778,-0.44477 -0.84353,-0.44477 -1.33431,-1.380321 -0.47545,-0.935551 -0.47545,-2.392556 0,-1.518354 0.50612,-2.469241 0.50612,-0.950888 1.36498,-1.395658 0.87421,-0.44477 1.97846,-0.44477 0.62882,0 1.21162,0.138032 0.5828,0.122695 0.95089,0.306738 l -0.4141,1.119594 q -0.36808,-0.138033 -0.85887,-0.260728 -0.49078,-0.122695 -0.92021,-0.122695 -0.82819,0 -1.36498,0.352749 -0.5368,0.352748 -0.79752,1.042909 -0.26073,0.69016 -0.26073,1.717733 0,0.981561 0.26073,1.671722 0.26072,0.69016 0.78218,1.042909 0.52145,0.352749 1.30364,0.352749 0.67482,0 1.18094,-0.138032 0.52145,-0.138033 0.95088,-0.337412 v 1.196278 q -0.41409,0.214717 -0.92021,0.322075 -0.49078,0.122695 -1.19628,0.122695 z m 5.33723,-3.358781 q 0,0.138032 -0.0153,0.398759 0,0.245391 -0.0153,0.536792 -0.0153,0.276064 -0.0307,0.536791 -0.0153,0.245391 -0.0307,0.39876 l 4.40169,-6.886268 h 1.65639 v 8.220578 h -1.25763 v -4.84646 q 0,-0.245391 0,-0.64415 0.0153,-0.39876 0.0307,-0.782182 0.0153,-0.398759 0.0307,-0.598139 l -4.37102,6.870931 h -1.67172 v -8.220578 h 1.27296 z m 9.86163,0 q 0,0.138032 -0.0153,0.398759 0,0.245391 -0.0153,0.536792 -0.0153,0.276064 -0.0307,0.536791 -0.0153,0.245391 -0.0307,0.39876 l 4.40169,-6.886268 h 1.65638 v 8.220578 h -1.25762 v -4.84646 q 0,-0.245391 0,-0.64415 0.0153,-0.39876 0.0307,-0.782182 0.0153,-0.398759 0.0307,-0.598139 l -4.37102,6.870931 h -1.67172 v -8.220578 h 1.27296 z"
       id="text4"
       style="font-size:15.3369px;text-align:end;text-anchor:end;fill:#ffbf00;stroke-width:1.27808"
       aria-label="истории России" />
    <circle
       style="display:inline;fill:#ffffff;fill-opacity:1;stroke-width:0.264583"
       id="path5-9"
       cx="424.73175"
       cy="159.2162"
       r="13.229166" />
    <g
       id="text6"
       style="font-size:15.53px;fill:#000000;stroke-width:1.29416"
       aria-label="Пример:&#10;карта мира"
       transform="translate(0,-57.80647)">
      <path
         style="text-align:center;text-anchor:middle;fill:#000000"
         d="m 223.20402,169.20647 v -11.08842 h 8.32408 v 11.08842 h -1.38217 v -9.86155 h -5.54421 v 9.86155 z m 15.12624,-8.47938 q 1.53747,0 2.46927,1.07157 0.94733,1.07157 0.94733,3.23024 0,1.41323 -0.43484,2.39162 -0.41931,0.96286 -1.19581,1.45982 -0.76097,0.48143 -1.80148,0.48143 -0.63673,0 -1.13369,-0.17083 -0.49696,-0.17083 -0.85415,-0.43484 -0.34166,-0.27954 -0.59014,-0.60567 h -0.0932 q 0.0311,0.26401 0.0621,0.66779 0.0311,0.40378 0.0311,0.69885 v 3.4166 h -1.36664 v -12.05128 h 1.11816 l 0.18636,1.13369 h 0.0621 q 0.24848,-0.35719 0.59014,-0.65226 0.35719,-0.29507 0.83862,-0.4659 0.49696,-0.17083 1.16475,-0.17083 z m -0.24848,1.14922 q -0.83862,0 -1.35111,0.32613 -0.51249,0.3106 -0.74544,0.94733 -0.23295,0.63673 -0.24848,1.61512 v 0.26401 q 0,1.02498 0.21742,1.73936 0.21742,0.71438 0.72991,1.0871 0.52802,0.37272 1.42876,0.37272 0.76097,0 1.2424,-0.41931 0.49696,-0.41931 0.72991,-1.13369 0.24848,-0.72991 0.24848,-1.66171 0,-1.42876 -0.55908,-2.28291 -0.54355,-0.85415 -1.69277,-0.85415 z m 7.12826,4.08439 q 0,0.13977 -0.0155,0.40378 0,0.24848 -0.0155,0.54355 -0.0155,0.27954 -0.0311,0.54355 -0.0155,0.24848 -0.0311,0.40378 l 4.45711,-6.97297 h 1.67724 v 8.32408 h -1.27346 v -4.90748 q 0,-0.24848 0,-0.65226 0.0155,-0.40378 0.0311,-0.79203 0.0155,-0.40378 0.0311,-0.60567 l -4.42605,6.95744 h -1.69277 v -8.32408 h 1.28899 z m 17.62655,-5.07831 v 8.32408 h -1.22687 v -5.31126 q 0,-0.32613 0.0155,-0.68332 0.0311,-0.35719 0.0621,-0.69885 h -0.0466 l -2.71775,6.69343 h -1.14922 l -2.6401,-6.69343 h -0.0466 q 0.0311,0.34166 0.0311,0.69885 0.0155,0.35719 0.0155,0.72991 v 5.26467 h -1.22687 v -8.32408 h 1.81701 l 2.62457,6.69343 2.67116,-6.69343 z m 5.87034,-0.1553 q 1.07157,0 1.83254,0.4659 0.7765,0.4659 1.18028,1.32005 0.41931,0.83862 0.41931,1.97231 v 0.82309 h -5.69951 q 0.0311,1.41323 0.71438,2.15867 0.69885,0.72991 1.94125,0.72991 0.79203,0 1.3977,-0.13977 0.6212,-0.1553 1.27346,-0.43484 v 1.19581 q -0.63673,0.27954 -1.25793,0.40378 -0.6212,0.13977 -1.47535,0.13977 -1.18028,0 -2.09655,-0.48143 -0.90074,-0.48143 -1.41323,-1.42876 -0.49696,-0.96286 -0.49696,-2.34503 0,-1.36664 0.45037,-2.34503 0.4659,-0.97839 1.28899,-1.50641 0.83862,-0.52802 1.94125,-0.52802 z m -0.0155,1.11816 q -0.97839,0 -1.553,0.63673 -0.55908,0.6212 -0.66779,1.73936 h 4.23969 q 0,-0.71438 -0.21742,-1.2424 -0.21742,-0.52802 -0.66779,-0.82309 -0.43484,-0.3106 -1.13369,-0.3106 z m 9.51988,-1.11816 q 1.53747,0 2.46927,1.07157 0.94733,1.07157 0.94733,3.23024 0,1.41323 -0.43484,2.39162 -0.41931,0.96286 -1.19581,1.45982 -0.76097,0.48143 -1.80148,0.48143 -0.63673,0 -1.13369,-0.17083 -0.49696,-0.17083 -0.85415,-0.43484 -0.34166,-0.27954 -0.59014,-0.60567 h -0.0932 q 0.0311,0.26401 0.0621,0.66779 0.0311,0.40378 0.0311,0.69885 v 3.4166 h -1.36664 v -12.05128 h 1.11816 l 0.18636,1.13369 h 0.0621 q 0.24848,-0.35719 0.59014,-0.65226 0.35719,-0.29507 0.83862,-0.4659 0.49696,-0.17083 1.16475,-0.17083 z m -0.24848,1.14922 q -0.83862,0 -1.35111,0.32613 -0.51249,0.3106 -0.74544,0.94733 -0.23295,0.63673 -0.24848,1.61512 v 0.26401 q 0,1.02498 0.21742,1.73936 0.21742,0.71438 0.72991,1.0871 0.52802,0.37272 1.42876,0.37272 0.76097,0 1.2424,-0.41931 0.49696,-0.41931 0.72991,-1.13369 0.24848,-0.72991 0.24848,-1.66171 0,-1.42876 -0.55908,-2.28291 -0.54355,-0.85415 -1.69277,-0.85415 z m 5.63739,6.49154 q 0,-0.57461 0.27954,-0.80756 0.27954,-0.23295 0.66779,-0.23295 0.40378,0 0.68332,0.23295 0.29507,0.23295 0.29507,0.80756 0,0.55908 -0.29507,0.80756 -0.27954,0.24848 -0.68332,0.24848 -0.38825,0 -0.66779,-0.24848 -0.27954,-0.24848 -0.27954,-0.80756 z m 0,-6.64684 q 0,-0.59014 0.27954,-0.82309 0.27954,-0.23295 0.66779,-0.23295 0.40378,0 0.68332,0.23295 0.29507,0.23295 0.29507,0.82309 0,0.55908 -0.29507,0.80756 -0.27954,0.24848 -0.68332,0.24848 -0.38825,0 -0.66779,-0.24848 -0.27954,-0.24848 -0.27954,-0.80756 z"
         id="path18" />
      <path
         style="text-align:center;text-anchor:middle;fill:#000000"
         d="m 217.26378,180.29489 h 1.49088 l -3.55637,4.00674 3.85144,4.31734 h -1.58406 l -3.75826,-4.22416 v 4.22416 h -1.36664 v -8.32408 h 1.36664 v 4.0378 z m 6.44494,-0.13977 q 1.52194,0 2.25185,0.66779 0.72991,0.66779 0.72991,2.12761 v 5.66845 h -0.99392 l -0.26401,-1.18028 h -0.0621 q -0.35719,0.45037 -0.74544,0.76097 -0.37272,0.29507 -0.86968,0.43484 -0.48143,0.13977 -1.18028,0.13977 -0.74544,0 -1.35111,-0.26401 -0.59014,-0.26401 -0.9318,-0.80756 -0.34166,-0.55908 -0.34166,-1.3977 0,-1.2424 0.97839,-1.91019 0.97839,-0.68332 3.01282,-0.74544 l 1.41323,-0.0466 v -0.49696 q 0,-1.04051 -0.45037,-1.44429 -0.45037,-0.40378 -1.27346,-0.40378 -0.65226,0 -1.2424,0.20189 -0.59014,0.18636 -1.10263,0.43484 l -0.41931,-1.02498 q 0.54355,-0.29507 1.28899,-0.49696 0.74544,-0.21742 1.553,-0.21742 z m 0.40378,4.44158 q -1.553,0.0621 -2.15867,0.49696 -0.59014,0.43484 -0.59014,1.22687 0,0.69885 0.41931,1.02498 0.43484,0.32613 1.10263,0.32613 1.05604,0 1.75489,-0.57461 0.69885,-0.59014 0.69885,-1.80148 v -0.74544 z m 9.11613,-4.45711 q 1.53747,0 2.46927,1.07157 0.94733,1.07157 0.94733,3.23024 0,1.41323 -0.43484,2.39162 -0.41931,0.96286 -1.19581,1.45982 -0.76097,0.48143 -1.80148,0.48143 -0.63673,0 -1.13369,-0.17083 -0.49696,-0.17083 -0.85415,-0.43484 -0.34166,-0.27954 -0.59014,-0.60567 h -0.0932 q 0.0311,0.26401 0.0621,0.66779 0.0311,0.40378 0.0311,0.69885 v 3.4166 h -1.36664 v -12.05128 h 1.11816 l 0.18636,1.13369 h 0.0621 q 0.24848,-0.35719 0.59014,-0.65226 0.35719,-0.29507 0.83862,-0.4659 0.49696,-0.17083 1.16475,-0.17083 z m -0.24848,1.14922 q -0.83862,0 -1.35111,0.32613 -0.51249,0.3106 -0.74544,0.94733 -0.23295,0.63673 -0.24848,1.61512 v 0.26401 q 0,1.02498 0.21742,1.73936 0.21742,0.71438 0.72991,1.0871 0.52802,0.37272 1.42876,0.37272 0.76097,0 1.2424,-0.41931 0.49696,-0.41931 0.72991,-1.13369 0.24848,-0.72991 0.24848,-1.66171 0,-1.42876 -0.55908,-2.28291 -0.54355,-0.85415 -1.69277,-0.85415 z m 11.43007,0.1553 h -2.71775 v 7.17486 h -1.35111 v -7.17486 h -2.68669 v -1.14922 h 6.75555 z m 4.79877,-1.28899 q 1.52194,0 2.25185,0.66779 0.72991,0.66779 0.72991,2.12761 v 5.66845 h -0.99392 l -0.26401,-1.18028 h -0.0621 q -0.35719,0.45037 -0.74544,0.76097 -0.37272,0.29507 -0.86968,0.43484 -0.48143,0.13977 -1.18028,0.13977 -0.74544,0 -1.35111,-0.26401 -0.59014,-0.26401 -0.9318,-0.80756 -0.34166,-0.55908 -0.34166,-1.3977 0,-1.2424 0.97839,-1.91019 0.97839,-0.68332 3.01282,-0.74544 l 1.41323,-0.0466 v -0.49696 q 0,-1.04051 -0.45037,-1.44429 -0.45037,-0.40378 -1.27346,-0.40378 -0.65226,0 -1.2424,0.20189 -0.59014,0.18636 -1.10263,0.43484 L 246.367,180.8695 q 0.54355,-0.29507 1.28899,-0.49696 0.74544,-0.21742 1.553,-0.21742 z m 0.40378,4.44158 q -1.553,0.0621 -2.15867,0.49696 -0.59014,0.43484 -0.59014,1.22687 0,0.69885 0.41931,1.02498 0.43484,0.32613 1.10263,0.32613 1.05604,0 1.75489,-0.57461 0.69885,-0.59014 0.69885,-1.80148 v -0.74544 z m 18.12352,-4.30181 v 8.32408 h -1.22687 v -5.31126 q 0,-0.32613 0.0155,-0.68332 0.0311,-0.35719 0.0621,-0.69885 h -0.0466 l -2.71775,6.69343 h -1.14922 l -2.6401,-6.69343 h -0.0466 q 0.0311,0.34166 0.0311,0.69885 0.0155,0.35719 0.0155,0.72991 v 5.26467 h -1.22687 v -8.32408 h 1.81701 l 2.62457,6.69343 2.67116,-6.69343 z m 3.94463,5.07831 q 0,0.13977 -0.0155,0.40378 0,0.24848 -0.0155,0.54355 -0.0155,0.27954 -0.0311,0.54355 -0.0155,0.24848 -0.0311,0.40378 l 4.45711,-6.97297 h 1.67724 v 8.32408 h -1.27346 v -4.90748 q 0,-0.24848 0,-0.65226 0.0155,-0.40378 0.0311,-0.79203 0.0155,-0.40378 0.0311,-0.60567 l -4.42605,6.95744 h -1.69277 v -8.32408 h 1.28899 z m 12.65694,-5.23361 q 1.53747,0 2.46927,1.07157 0.94733,1.07157 0.94733,3.23024 0,1.41323 -0.43484,2.39162 -0.41931,0.96286 -1.19581,1.45982 -0.76097,0.48143 -1.80148,0.48143 -0.63673,0 -1.13369,-0.17083 -0.49696,-0.17083 -0.85415,-0.43484 -0.34166,-0.27954 -0.59014,-0.60567 h -0.0932 q 0.0311,0.26401 0.0621,0.66779 0.0311,0.40378 0.0311,0.69885 v 3.4166 h -1.36664 v -12.05128 h 1.11816 l 0.18636,1.13369 h 0.0621 q 0.24848,-0.35719 0.59014,-0.65226 0.35719,-0.29507 0.83862,-0.4659 0.49696,-0.17083 1.16475,-0.17083 z m -0.24848,1.14922 q -0.83862,0 -1.35111,0.32613 -0.51249,0.3106 -0.74544,0.94733 -0.23295,0.63673 -0.24848,1.61512 v 0.26401 q 0,1.02498 0.21742,1.73936 0.21742,0.71438 0.72991,1.0871 0.52802,0.37272 1.42876,0.37272 0.76097,0 1.2424,-0.41931 0.49696,-0.41931 0.72991,-1.13369 0.24848,-0.72991 0.24848,-1.66171 0,-1.42876 -0.55908,-2.28291 -0.54355,-0.85415 -1.69277,-0.85415 z m 8.99187,-1.13369 q 1.52194,0 2.25185,0.66779 0.72991,0.66779 0.72991,2.12761 v 5.66845 h -0.99392 l -0.26401,-1.18028 h -0.0621 q -0.35719,0.45037 -0.74544,0.76097 -0.37272,0.29507 -0.86968,0.43484 -0.48143,0.13977 -1.18028,0.13977 -0.74544,0 -1.35111,-0.26401 -0.59014,-0.26401 -0.9318,-0.80756 -0.34166,-0.55908 -0.34166,-1.3977 0,-1.2424 0.97839,-1.91019 0.97839,-0.68332 3.01282,-0.74544 l 1.41323,-0.0466 v -0.49696 q 0,-1.04051 -0.45037,-1.44429 -0.45037,-0.40378 -1.27346,-0.40378 -0.65226,0 -1.2424,0.20189 -0.59014,0.18636 -1.10263,0.43484 l -0.41931,-1.02498 q 0.54355,-0.29507 1.28899,-0.49696 0.74544,-0.21742 1.553,-0.21742 z m 0.40378,4.44158 q -1.553,0.0621 -2.15867,0.49696 -0.59014,0.43484 -0.59014,1.22687 0,0.69885 0.41931,1.02498 0.43484,0.32613 1.10263,0.32613 1.05604,0 1.75489,-0.57461 0.69885,-0.59014 0.69885,-1.80148 v -0.74544 z"
         id="path19" />
    </g>
    <circle
       style="display:inline;fill:#ffffff;fill-opacity:1;stroke-width:0.264583"
       id="circle7"
       cx="254"
       cy="-159.6821"
       r="13.229166"
       transform="scale(1,-1)" />
    <g
       id="text10"
       style="font-size:15.53px;stroke-width:1.29416"
       aria-label="Пример:&#10;2,5D карта">
      <path
         style="text-align:center;text-anchor:middle"
         d="m 393.93577,113.69844 v -11.08842 h 8.32408 v 11.08842 h -1.38217 v -9.86155 h -5.54421 v 9.86155 z m 15.12624,-8.47938 q 1.53747,0 2.46927,1.07157 0.94733,1.07157 0.94733,3.23024 0,1.41323 -0.43484,2.39162 -0.41931,0.96286 -1.19581,1.45982 -0.76097,0.48143 -1.80148,0.48143 -0.63673,0 -1.13369,-0.17083 -0.49696,-0.17083 -0.85415,-0.43484 -0.34166,-0.27954 -0.59014,-0.60567 h -0.0932 q 0.0311,0.26401 0.0621,0.66779 0.0311,0.40378 0.0311,0.69885 v 3.4166 h -1.36664 v -12.05128 h 1.11816 l 0.18636,1.13369 h 0.0621 q 0.24848,-0.35719 0.59014,-0.65226 0.35719,-0.29507 0.83862,-0.4659 0.49696,-0.17083 1.16475,-0.17083 z m -0.24848,1.14922 q -0.83862,0 -1.35111,0.32613 -0.51249,0.3106 -0.74544,0.94733 -0.23295,0.63673 -0.24848,1.61512 v 0.26401 q 0,1.02498 0.21742,1.73936 0.21742,0.71438 0.72991,1.0871 0.52802,0.37272 1.42876,0.37272 0.76097,0 1.2424,-0.41931 0.49696,-0.41931 0.72991,-1.13369 0.24848,-0.72991 0.24848,-1.66171 0,-1.42876 -0.55908,-2.28291 -0.54355,-0.85415 -1.69277,-0.85415 z m 7.12826,4.08439 q 0,0.13977 -0.0155,0.40378 0,0.24848 -0.0155,0.54355 -0.0155,0.27954 -0.0311,0.54355 -0.0155,0.24848 -0.0311,0.40378 l 4.45711,-6.97297 h 1.67724 v 8.32408 h -1.27346 v -4.90748 q 0,-0.24848 0,-0.65226 0.0155,-0.40378 0.0311,-0.79203 0.0155,-0.40378 0.0311,-0.60567 l -4.42605,6.95744 h -1.69277 v -8.32408 h 1.28899 z m 17.62655,-5.07831 v 8.32408 h -1.22687 v -5.31126 q 0,-0.32613 0.0155,-0.68332 0.0311,-0.35719 0.0621,-0.69885 h -0.0466 l -2.71775,6.69343 h -1.14922 l -2.6401,-6.69343 h -0.0466 q 0.0311,0.34166 0.0311,0.69885 0.0155,0.35719 0.0155,0.72991 v 5.26467 h -1.22687 v -8.32408 h 1.81701 l 2.62457,6.69343 2.67116,-6.69343 z m 5.87034,-0.1553 q 1.07157,0 1.83254,0.4659 0.7765,0.4659 1.18028,1.32005 0.41931,0.83862 0.41931,1.97231 v 0.82309 h -5.69951 q 0.0311,1.41323 0.71438,2.15867 0.69885,0.72991 1.94125,0.72991 0.79203,0 1.3977,-0.13977 0.6212,-0.1553 1.27346,-0.43484 v 1.19581 q -0.63673,0.27954 -1.25793,0.40378 -0.6212,0.13977 -1.47535,0.13977 -1.18028,0 -2.09655,-0.48143 -0.90074,-0.48143 -1.41323,-1.42876 -0.49696,-0.96286 -0.49696,-2.34503 0,-1.36664 0.45037,-2.34503 0.4659,-0.97839 1.28899,-1.50641 0.83862,-0.52802 1.94125,-0.52802 z m -0.0155,1.11816 q -0.97839,0 -1.553,0.63673 -0.55908,0.6212 -0.66779,1.73936 h 4.23969 q 0,-0.71438 -0.21742,-1.2424 -0.21742,-0.52802 -0.66779,-0.82309 -0.43484,-0.3106 -1.13369,-0.3106 z m 9.51988,-1.11816 q 1.53747,0 2.46927,1.07157 0.94733,1.07157 0.94733,3.23024 0,1.41323 -0.43484,2.39162 -0.41931,0.96286 -1.19581,1.45982 -0.76097,0.48143 -1.80148,0.48143 -0.63673,0 -1.13369,-0.17083 -0.49696,-0.17083 -0.85415,-0.43484 -0.34166,-0.27954 -0.59014,-0.60567 h -0.0932 q 0.0311,0.26401 0.0621,0.66779 0.0311,0.40378 0.0311,0.69885 v 3.4166 h -1.36664 v -12.05128 h 1.11816 l 0.18636,1.13369 h 0.0621 q 0.24848,-0.35719 0.59014,-0.65226 0.35719,-0.29507 0.83862,-0.4659 0.49696,-0.17083 1.16475,-0.17083 z m -0.24848,1.14922 q -0.83862,0 -1.35111,0.32613 -0.51249,0.3106 -0.74544,0.94733 -0.23295,0.63673 -0.24848,1.61512 v 0.26401 q 0,1.02498 0.21742,1.73936 0.21742,0.71438 0.72991,1.0871 0.52802,0.37272 1.42876,0.37272 0.76097,0 1.2424,-0.41931 0.49696,-0.41931 0.72991,-1.13369 0.24848,-0.72991 0.24848,-1.66171 0,-1.42876 -0.55908,-2.28291 -0.54355,-0.85415 -1.69277,-0.85415 z m 5.63739,6.49154 q 0,-0.57461 0.27954,-0.80756 0.27954,-0.23295 0.66779,-0.23295 0.40378,0 0.68332,0.23295 0.29507,0.23295 0.29507,0.80756 0,0.55908 -0.29507,0.80756 -0.27954,0.24848 -0.68332,0.24848 -0.38825,0 -0.66779,-0.24848 -0.27954,-0.24848 -0.27954,-0.80756 z m 0,-6.64684 q 0,-0.59014 0.27954,-0.82309 0.27954,-0.23295 0.66779,-0.23295 0.40378,0 0.68332,0.23295 0.29507,0.23295 0.29507,0.82309 0,0.55908 -0.29507,0.80756 -0.27954,0.24848 -0.68332,0.24848 -0.38825,0 -0.66779,-0.24848 -0.27954,-0.24848 -0.27954,-0.80756 z"
         id="path20" />
      <path
         style="text-align:center;text-anchor:middle"
         d="m 393.11267,133.11094 h -7.33016 v -1.13369 l 2.90411,-2.93517 q 0.83862,-0.83862 1.41323,-1.49088 0.57461,-0.65226 0.86968,-1.27346 0.29507,-0.63673 0.29507,-1.38217 0,-0.91627 -0.54355,-1.38217 -0.54355,-0.48143 -1.41323,-0.48143 -0.80756,0 -1.42876,0.27954 -0.60567,0.27954 -1.2424,0.7765 l -0.72991,-0.91627 q 0.43484,-0.37272 0.94733,-0.66779 0.52802,-0.29507 1.13369,-0.4659 0.6212,-0.17083 1.32005,-0.17083 1.04051,0 1.78595,0.35719 0.74544,0.35719 1.14922,1.02498 0.41931,0.65226 0.41931,1.56853 0,0.86968 -0.35719,1.63065 -0.35719,0.76097 -0.99392,1.50641 -0.63673,0.72991 -1.49088,1.56853 l -2.31397,2.28291 v 0.0621 h 5.60633 z m 3.78933,-1.63065 q -0.13977,0.54355 -0.35719,1.18028 -0.21742,0.63673 -0.48143,1.25793 -0.24848,0.63673 -0.49696,1.19581 h -1.00945 q 0.1553,-0.59014 0.29507,-1.27346 0.1553,-0.66779 0.27954,-1.32005 0.12424,-0.66779 0.20189,-1.21134 h 1.45982 z m 5.45102,-5.17149 q 1.13369,0 1.97231,0.38825 0.83862,0.38825 1.28899,1.11816 0.4659,0.71438 0.4659,1.75489 0,1.14922 -0.49696,1.98784 -0.49696,0.82309 -1.42876,1.27346 -0.91627,0.43484 -2.22079,0.43484 -0.85415,0 -1.61512,-0.1553 -0.74544,-0.1553 -1.25793,-0.45037 v -1.28899 q 0.55908,0.34166 1.35111,0.54355 0.80756,0.18636 1.53747,0.18636 0.82309,0 1.42876,-0.24848 0.6212,-0.26401 0.96286,-0.79203 0.34166,-0.54355 0.34166,-1.35111 0,-1.0871 -0.66779,-1.66171 -0.66779,-0.59014 -2.11208,-0.59014 -0.43484,0 -0.99392,0.0776 -0.55908,0.0777 -0.90074,0.1553 l -0.68332,-0.43484 0.41931,-5.23361 h 5.55974 v 1.2424 h -4.39499 l -0.26401,3.21471 q 0.26401,-0.0466 0.71438,-0.10871 0.45037,-0.0621 0.99392,-0.0621 z m 15.00199,1.14922 q 0,1.8636 -0.69885,3.12153 -0.68332,1.25793 -1.97231,1.89466 -1.28899,0.63673 -3.12153,0.63673 h -3.09047 v -11.08842 h 3.4166 q 1.67724,0 2.90411,0.6212 1.22687,0.6212 1.89466,1.83254 0.66779,1.19581 0.66779,2.98176 z m -1.47535,0.0466 q 0,-1.47535 -0.49696,-2.42268 -0.48143,-0.94733 -1.42876,-1.3977 -0.9318,-0.4659 -2.26738,-0.4659 h -1.81701 v 8.6968 h 1.50641 q 2.25185,0 3.37001,-1.10263 1.13369,-1.11816 1.13369,-3.30789 z m 12.70354,-2.71775 h 1.49088 l -3.55637,4.00674 3.85144,4.31734 h -1.58406 l -3.75826,-4.22416 v 4.22416 h -1.36664 v -8.32408 h 1.36664 v 4.0378 z m 6.44494,-0.13977 q 1.52194,0 2.25185,0.66779 0.72991,0.66779 0.72991,2.12761 v 5.66845 h -0.99392 l -0.26401,-1.18028 h -0.0621 q -0.35719,0.45037 -0.74544,0.76097 -0.37272,0.29507 -0.86968,0.43484 -0.48143,0.13977 -1.18028,0.13977 -0.74544,0 -1.35111,-0.26401 -0.59014,-0.26401 -0.9318,-0.80756 -0.34166,-0.55908 -0.34166,-1.3977 0,-1.2424 0.97839,-1.91019 0.97839,-0.68332 3.01282,-0.74544 l 1.41323,-0.0466 v -0.49696 q 0,-1.04051 -0.45037,-1.44429 -0.45037,-0.40378 -1.27346,-0.40378 -0.65226,0 -1.2424,0.20189 -0.59014,0.18636 -1.10263,0.43484 l -0.41931,-1.02498 q 0.54355,-0.29507 1.28899,-0.49696 0.74544,-0.21742 1.553,-0.21742 z m 0.40378,4.44158 q -1.553,0.0621 -2.15867,0.49696 -0.59014,0.43484 -0.59014,1.22687 0,0.69885 0.41931,1.02498 0.43484,0.32613 1.10263,0.32613 1.05604,0 1.75489,-0.57461 0.69885,-0.59014 0.69885,-1.80148 v -0.74544 z m 9.11612,-4.45711 q 1.53747,0 2.46927,1.07157 0.94733,1.07157 0.94733,3.23024 0,1.41323 -0.43484,2.39162 -0.41931,0.96286 -1.19581,1.45982 -0.76097,0.48143 -1.80148,0.48143 -0.63673,0 -1.13369,-0.17083 -0.49696,-0.17083 -0.85415,-0.43484 -0.34166,-0.27954 -0.59014,-0.60567 h -0.0932 q 0.0311,0.26401 0.0621,0.66779 0.0311,0.40378 0.0311,0.69885 v 3.4166 h -1.36664 v -12.05128 h 1.11816 l 0.18636,1.13369 h 0.0621 q 0.24848,-0.35719 0.59014,-0.65226 0.35719,-0.29507 0.83862,-0.4659 0.49696,-0.17083 1.16475,-0.17083 z m -0.24848,1.14922 q -0.83862,0 -1.35111,0.32613 -0.51249,0.3106 -0.74544,0.94733 -0.23295,0.63673 -0.24848,1.61512 v 0.26401 q 0,1.02498 0.21742,1.73936 0.21742,0.71438 0.72991,1.0871 0.52802,0.37272 1.42876,0.37272 0.76097,0 1.2424,-0.41931 0.49696,-0.41931 0.72991,-1.13369 0.24848,-0.72991 0.24848,-1.66171 0,-1.42876 -0.55908,-2.28291 -0.54355,-0.85415 -1.69277,-0.85415 z m 11.43007,0.1553 h -2.71775 v 7.17486 h -1.35111 v -7.17486 h -2.68669 v -1.14922 h 6.75555 z m 4.79877,-1.28899 q 1.52194,0 2.25185,0.66779 0.72991,0.66779 0.72991,2.12761 v 5.66845 h -0.99392 l -0.26401,-1.18028 h -0.0621 q -0.35719,0.45037 -0.74544,0.76097 -0.37272,0.29507 -0.86968,0.43484 -0.48143,0.13977 -1.18028,0.13977 -0.74544,0 -1.35111,-0.26401 -0.59014,-0.26401 -0.9318,-0.80756 -0.34166,-0.55908 -0.34166,-1.3977 0,-1.2424 0.97839,-1.91019 0.97839,-0.68332 3.01282,-0.74544 l 1.41323,-0.0466 v -0.49696 q 0,-1.04051 -0.45037,-1.44429 -0.45037,-0.40378 -1.27346,-0.40378 -0.65226,0 -1.2424,0.20189 -0.59014,0.18636 -1.10263,0.43484 l -0.41931,-1.02498 q 0.54355,-0.29507 1.28899,-0.49696 0.74544,-0.21742 1.553,-0.21742 z m 0.40378,4.44158 q -1.553,0.0621 -2.15867,0.49696 -0.59014,0.43484 -0.59014,1.22687 0,0.69885 0.41931,1.02498 0.43484,0.32613 1.10263,0.32613 1.05604,0 1.75489,-0.57461 0.69885,-0.59014 0.69885,-1.80148 v -0.74544 z"
         id="path21" />
    </g>
    <text
       xml:space="preserve"
       style="font-size:15.3369px;display:none;fill:#ffffff;stroke-width:1.27808"
       x="110.85307"
       y="20.550457"
       id="text12"><tspan
         sodipodi:role="line"
         id="tspan12"
         style="fill:#ffffff;stroke-width:1.27808"
         x="0"
         y="0">Интерактивная карта</tspan></text>
    <text
       xml:space="preserve"
       style="font-size:15.3369px;text-align:end;text-anchor:end;display:none;fill:#ffbf00;fill-opacity:1;stroke-width:1.27808"
       x="396.96283"
       y="20.550457"
       id="text13"><tspan
         sodipodi:role="line"
         id="tspan13"
         style="text-align:end;text-anchor:end;fill:#ffbf00;fill-opacity:1;stroke-width:1.27808"
         x="0"
         y="0">истории России</tspan></text>
    <path
       style="font-size:15.53px;text-align:center;text-anchor:middle;fill:#ffffff;stroke-width:1.29416"
       d="m 16.79248,70.893442 q -0.7765,0 -1.41323,0.18636 -0.63673,0.17083 -1.14922,0.40378 l -0.57461,-1.16475 q 0.63673,-0.3106 1.45982,-0.48143 0.82309,-0.17083 1.69277,-0.17083 1.33558,0 2.31397,0.41931 0.99392,0.40378 1.64618,1.14922 0.65226,0.74544 0.96286,1.75489 0.32613,0.993919 0.32613,2.189729 0,1.81701 -0.59014,3.13706 -0.59014,1.32005 -1.78595,2.03443 -1.18028,0.71438 -2.98176,0.71438 -0.96286,0 -1.63065,-0.10871 -0.66779,-0.10871 -1.32005,-0.34166 v -1.21134 q 0.65226,0.17083 1.32005,0.3106 0.66779,0.12424 1.41323,0.12424 1.00945,0 1.75489,-0.26401 0.76097,-0.27954 1.27346,-0.79203 0.51249,-0.52802 0.7765,-1.28899 0.26401,-0.7765 0.29507,-1.77042 h -5.38891 v -1.22687 h 5.37338 q -0.07765,-0.85415 -0.37272,-1.521939 -0.29507,-0.66779 -0.79203,-1.13369 -0.48143,-0.4659 -1.14922,-0.69885 -0.65226,-0.24848 -1.45982,-0.24848 z m 13.29367,2.841989 h -2.717749 v 7.17486 h -1.35111 v -7.17486 h -2.68669 v -1.149219 h 6.755549 z m 8.727855,2.99729 q 0,1.04051 -0.27954,1.84807 -0.26401,0.79203 -0.7765,1.35111 -0.49696,0.55908 -1.22687,0.85415 -0.71438,0.27954 -1.59959,0.27954 -0.82309,0 -1.52194,-0.27954 -0.69885,-0.29507 -1.21134,-0.85415 -0.51249,-0.55908 -0.80756,-1.35111 -0.27954,-0.80756 -0.27954,-1.84807 0,-1.38217 0.4659,-2.3295 0.4659,-0.96286 1.33558,-1.459819 0.86968,-0.51249 2.06549,-0.51249 1.13369,0 1.98784,0.51249 0.86968,0.496959 1.35111,1.459819 0.49696,0.94733 0.49696,2.3295 z m -6.28965,0 q 0,0.97839 0.24848,1.7083 0.26401,0.71438 0.80756,1.10263 0.54355,0.38825 1.38217,0.38825 0.83862,0 1.38217,-0.38825 0.54355,-0.38825 0.79203,-1.10263 0.26401,-0.72991 0.26401,-1.7083 0,-0.99392 -0.26401,-1.69277 -0.26401,-0.69885 -0.80756,-1.07157 -0.52802,-0.38825 -1.38217,-0.38825 -1.27346,0 -1.84807,0.83862 -0.57461,0.83862 -0.57461,2.31397 z m 14.039108,-2.99729 h -2.71775 v 7.17486 h -1.35111 v -7.17486 h -2.68669 v -1.149219 h 6.75555 z m 12.71907,-1.149219 v 8.324079 h -1.36664 v -7.15933 h -4.30181 v 7.15933 h -1.36664 v -8.324079 z m 6.615791,-0.1553 q 1.53747,0 2.46927,1.071569 0.94733,1.07157 0.94733,3.23024 0,1.41323 -0.43484,2.39162 -0.41931,0.96286 -1.19581,1.45982 -0.76097,0.48143 -1.80148,0.48143 -0.63673,0 -1.13369,-0.17083 -0.49696,-0.17083 -0.85415,-0.43484 -0.34166,-0.27954 -0.59014,-0.60567 h -0.09318 q 0.03106,0.26401 0.06212,0.66779 0.03106,0.40378 0.03106,0.69885 v 3.4166 h -1.36664 V 72.586212 h 1.11816 l 0.18636,1.133689 h 0.06212 q 0.24848,-0.35719 0.59014,-0.652259 0.35719,-0.29507 0.83862,-0.4659 0.49696,-0.17083 1.16475,-0.17083 z m -0.24848,1.149219 q -0.83862,0 -1.35111,0.32613 -0.51249,0.3106 -0.74544,0.94733 -0.23295,0.63673 -0.24848,1.61512 v 0.26401 q 0,1.02498 0.21742,1.73936 0.21742,0.71438 0.72991,1.0871 0.52802,0.37272 1.42876,0.37272 0.76097,0 1.2424,-0.41931 0.49696,-0.41931 0.72991,-1.13369 0.24848,-0.72991 0.24848,-1.66171 0,-1.42876 -0.55908,-2.28291 -0.54355,-0.85415 -1.69277,-0.85415 z m 13.076255,3.15259 q 0,1.04051 -0.27954,1.84807 -0.26401,0.79203 -0.7765,1.35111 -0.49696,0.55908 -1.22687,0.85415 -0.71438,0.27954 -1.59959,0.27954 -0.82309,0 -1.52194,-0.27954 -0.69885,-0.29507 -1.21134,-0.85415 -0.51249,-0.55908 -0.80756,-1.35111 -0.27954,-0.80756 -0.27954,-1.84807 0,-1.38217 0.4659,-2.3295 0.4659,-0.96286 1.33558,-1.459819 0.86968,-0.51249 2.06549,-0.51249 1.13369,0 1.98784,0.51249 0.86968,0.496959 1.35111,1.459819 0.49696,0.94733 0.49696,2.3295 z m -6.28965,0 q 0,0.97839 0.24848,1.7083 0.26401,0.71438 0.80756,1.10263 0.54355,0.38825 1.38217,0.38825 0.83862,0 1.38217,-0.38825 0.54355,-0.38825 0.79203,-1.10263 0.26401,-0.72991 0.26401,-1.7083 0,-0.99392 -0.26401,-1.69277 -0.26401,-0.69885 -0.80756,-1.07157 -0.52802,-0.38825 -1.38217,-0.38825 -1.27346,0 -1.84807,0.83862 -0.57461,0.83862 -0.57461,2.31397 z m 11.663022,-4.301809 q 1.07157,0 1.83254,0.4659 0.7765,0.465899 1.18028,1.320049 0.41931,0.83862 0.41931,1.97231 v 0.82309 h -5.69951 q 0.03106,1.41323 0.71438,2.15867 0.69885,0.72991 1.94125,0.72991 0.79203,0 1.3977,-0.13977 0.6212,-0.1553 1.27346,-0.43484 v 1.19581 q -0.63673,0.27954 -1.25793,0.40378 -0.6212,0.13977 -1.47535,0.13977 -1.18028,0 -2.09655,-0.48143 -0.90074,-0.48143 -1.41323,-1.42876 -0.49696,-0.96286 -0.49696,-2.34503 0,-1.36664 0.45037,-2.34503 0.4659,-0.97839 1.28899,-1.506409 0.83862,-0.52802 1.94125,-0.52802 z m -0.01553,1.118159 q -0.97839,0 -1.553,0.63673 -0.55908,0.6212 -0.66779,1.73936 h 4.23969 q 0,-0.71438 -0.21742,-1.2424 -0.21742,-0.52802 -0.66779,-0.82309 -0.43484,-0.3106 -1.13369,-0.3106 z m 10.482741,-0.962859 h 1.49088 l -3.55637,4.006739 3.85144,4.31734 h -1.58406 l -3.75826,-4.22416 v 4.22416 h -1.36664 v -8.324079 h 1.36664 v 4.037799 z m 9.038448,1.149219 h -2.71775 v 7.17486 h -1.351113 v -7.17486 h -2.68669 v -1.149219 h 6.755553 z m 9.02293,7.33016 q -1.10263,0 -1.97231,-0.45037 -0.85415,-0.45037 -1.35111,-1.3977 -0.48143,-0.94733 -0.48143,-2.42268 0,-1.53747 0.51249,-2.50033 0.51249,-0.96286 1.38217,-1.413229 0.88521,-0.45037 2.00337,-0.45037 0.63673,0 1.22687,0.13977 0.59014,0.12424 0.96286,0.3106 l -0.41931,1.133689 q -0.37272,-0.13977 -0.86968,-0.26401 -0.49696,-0.12424 -0.9318,-0.12424 -0.83862,0 -1.38217,0.35719 -0.54355,0.35719 -0.80756,1.05604 -0.26401,0.69885 -0.26401,1.73936 0,0.99392 0.26401,1.69277 0.26401,0.69885 0.79203,1.05604 0.52802,0.35719 1.32005,0.35719 0.68332,0 1.19581,-0.13977 0.52802,-0.13977 0.96286,-0.34166 v 1.21134 q -0.41931,0.21742 -0.9318,0.32613 -0.49696,0.12424 -1.21134,0.12424 z m 11.35242,-4.33287 q 0,1.04051 -0.27954,1.84807 -0.26401,0.79203 -0.7765,1.35111 -0.49696,0.55908 -1.22687,0.85415 -0.71438,0.27954 -1.59959,0.27954 -0.82309,0 -1.52194,-0.27954 -0.69885,-0.29507 -1.21134,-0.85415 -0.51249,-0.55908 -0.80756,-1.35111 -0.27954,-0.80756 -0.27954,-1.84807 0,-1.38217 0.4659,-2.3295 0.4659,-0.96286 1.33558,-1.459819 0.86968,-0.51249 2.06549,-0.51249 1.13369,0 1.98784,0.51249 0.86968,0.496959 1.35111,1.459819 0.49696,0.94733 0.49696,2.3295 z m -6.28965,0 q 0,0.97839 0.24848,1.7083 0.26401,0.71438 0.80756,1.10263 0.54355,0.38825 1.38217,0.38825 0.83862,0 1.38217,-0.38825 0.54355,-0.38825 0.79203,-1.10263 0.26401,-0.72991 0.26401,-1.7083 0,-0.99392 -0.26401,-1.69277 -0.26401,-0.69885 -0.80756,-1.07157 -0.52802,-0.38825 -1.38217,-0.38825 -1.27346,0 -1.84807,0.83862 -0.57461,0.83862 -0.57461,2.31397 z m 10.63805,-4.301809 q 0.94733,0 1.64618,0.26401 0.69885,0.24848 1.0871,0.745439 0.38825,0.48143 0.38825,1.18028 0,0.76097 -0.41931,1.21134 -0.41931,0.43484 -1.14922,0.63673 v 0.0621 q 0.49696,0.13977 0.91627,0.38825 0.41931,0.24848 0.66779,0.65226 0.26401,0.40378 0.26401,1.04051 0,0.68332 -0.38825,1.2424 -0.37272,0.55908 -1.16475,0.88521 -0.7765,0.32613 -2.00337,0.32613 -0.59014,0 -1.13369,-0.0621 -0.52802,-0.0621 -0.96286,-0.18636 -0.41931,-0.12424 -0.74544,-0.29507 v -1.22687 q 0.52802,0.24848 1.2424,0.45037 0.72991,0.20189 1.58406,0.20189 0.6212,0 1.11816,-0.13977 0.51249,-0.13977 0.80756,-0.43484 0.29507,-0.3106 0.29507,-0.83862 0,-0.48143 -0.26401,-0.7765 -0.26401,-0.3106 -0.79203,-0.4659 -0.51249,-0.1553 -1.32005,-0.1553 h -1.11816 v -1.11816 h 0.90074 q 1.07157,0 1.7083,-0.27954 0.65226,-0.29507 0.65226,-0.99392 0,-0.59014 -0.49696,-0.88521 -0.48143,-0.29507 -1.3977,-0.29507 -0.68332,0 -1.21134,0.13977 -0.51249,0.12424 -1.13369,0.38825 l -0.48143,-1.087099 q 0.66779,-0.29507 1.3977,-0.43484 0.72991,-0.13977 1.50641,-0.13977 z m 11.6009,0.1553 v 7.174859 h 1.21134 v 4.0378 h -1.32005 v -2.88858 h -5.79269 v 2.88858 h -1.30452 v -4.0378 h 0.66779 q 0.71438,-0.99392 1.18028,-2.15867 0.48143,-1.18028 0.71438,-2.45374 0.24848,-1.28899 0.26401,-2.562449 z m -3.16812,1.071569 q -0.0621,1.05604 -0.32613,2.18973 -0.26401,1.11816 -0.68332,2.14314 -0.40378,1.02498 -0.94733,1.77042 h 3.80485 v -6.10329 z m 9.16269,-1.211339 q 1.52194,0 2.25185,0.667789 0.72991,0.66779 0.72991,2.12761 v 5.66845 h -0.99392 l -0.26401,-1.18028 h -0.0621 q -0.35719,0.45037 -0.74544,0.76097 -0.37272,0.29507 -0.86968,0.43484 -0.48143,0.13977 -1.18028,0.13977 -0.74544,0 -1.35111,-0.26401 -0.59014,-0.26401 -0.9318,-0.80756 -0.34166,-0.55908 -0.34166,-1.3977 0,-1.2424 0.97839,-1.91019 0.97839,-0.68332 3.01282,-0.74544 l 1.41323,-0.0466 v -0.49696 q 0,-1.04051 -0.45037,-1.44429 -0.45037,-0.40378 -1.27346,-0.40378 -0.65226,0 -1.2424,0.20189 -0.59014,0.18636 -1.10263,0.43484 l -0.41931,-1.02498 q 0.54355,-0.295069 1.28899,-0.496959 0.74544,-0.21742 1.553,-0.21742 z m 0.40378,4.441579 q -1.553,0.0621 -2.15867,0.49696 -0.59014,0.43484 -0.59014,1.22687 0,0.69885 0.41931,1.02498 0.43484,0.32613 1.10263,0.32613 1.05604,0 1.75489,-0.57461 0.69885,-0.59014 0.69885,-1.80148 v -0.74544 z m 6.52261,-4.301809 v 3.463189 h 4.51923 v -3.463189 h 1.36664 v 8.324079 h -1.36664 v -3.71167 h -4.51923 v 3.71167 h -1.36664 v -8.324079 z"
       id="path7" />
    <path
       style="font-size:15.53px;text-align:center;text-anchor:middle;fill:#ffffff;stroke-width:1.29416"
       d="m 16.481846,100.47809 c -0.735087,0 -1.392523,-0.15012 -1.97231,-0.45037 -0.569433,-0.300249 -1.019803,-0.766149 -1.35111,-1.397699 -0.320953,-0.63155 -0.48143,-1.43911 -0.48143,-2.42268 0,-1.02498 0.17083,-1.85842 0.51249,-2.50033 0.34166,-0.64191 0.802383,-1.11298 1.38217,-1.41323 0.59014,-0.30025 1.25793,-0.45037 2.00337,-0.45037 0.424487,0 0.833443,0.0466 1.22687,0.13977 0.393427,0.0828 0.71438,0.18636 0.96286,0.3106 l -0.41931,1.13369 c -0.24848,-0.0932 -0.538373,-0.18118 -0.86968,-0.26401 -0.331307,-0.0828 -0.641907,-0.12424 -0.9318,-0.12424 -0.55908,0 -1.019803,0.11906 -1.38217,0.35719 -0.362367,0.23813 -0.631553,0.59014 -0.80756,1.05604 -0.176007,0.4659 -0.26401,1.04569 -0.26401,1.73936 0,0.66261 0.088,1.22687 0.26401,1.69277 0.176007,0.4659 0.440017,0.81791 0.79203,1.05604 0.352013,0.23813 0.79203,0.35719 1.32005,0.35719 0.455547,0 0.85415,-0.0466 1.19581,-0.13977 0.352013,-0.0932 0.672967,-0.20707 0.96286,-0.34166 v 1.211339 c -0.27954,0.14495 -0.59014,0.25366 -0.9318,0.32613 -0.331307,0.0828 -0.735087,0.12424 -1.21134,0.12424 z m 9.861543,-7.330159 h -2.71775 v 7.174859 h -1.35111 v -7.174859 h -2.68669 v -1.14922 h 6.75555 z m 0.341657,-1.14922 h 1.45982 l 1.80148,4.73665 c 0.103533,0.27954 0.196713,0.54873 0.27954,0.80756 0.09318,0.25883 0.176007,0.51249 0.24848,0.76097 0.07247,0.23813 0.129417,0.47108 0.17083,0.69885 h 0.06212 c 0.06212,-0.25883 0.160477,-0.59532 0.29507,-1.00945 0.134593,-0.42449 0.274363,-0.84897 0.41931,-1.27346 l 1.69277,-4.72112 h 1.47535 l -3.58743,9.473299 c -0.196713,0.51767 -0.429663,0.96804 -0.69885,1.35111 -0.258833,0.39343 -0.579787,0.69367 -0.96286,0.90074 -0.37272,0.21742 -0.828267,0.32613 -1.36664,0.32613 -0.24848,0 -0.4659,-0.0155 -0.65226,-0.0466 -0.18636,-0.0207 -0.346837,-0.0466 -0.48143,-0.0777 v -1.0871 c 0.113887,0.0207 0.24848,0.0414 0.40378,0.0621 0.165653,0.0207 0.336483,0.0311 0.51249,0.0311 0.320953,0 0.595317,-0.0621 0.82309,-0.18636 0.238127,-0.11389 0.440017,-0.28472 0.60567,-0.51249 0.165653,-0.21742 0.305423,-0.47625 0.41931,-0.7765 l 0.43484,-1.10263 z m 15.095157,0 v 7.17486 h 1.21134 v 4.037799 h -1.32005 v -2.88858 h -5.79269 v 2.88858 h -1.30452 v -4.037799 h 0.66779 c 0.476253,-0.66261 0.86968,-1.38217 1.18028,-2.15867 0.320953,-0.78685 0.55908,-1.60477 0.71438,-2.45374 0.165653,-0.85933 0.253657,-1.71348 0.26401,-2.56245 z m -3.16812,1.07157 c -0.04141,0.70403 -0.150123,1.43394 -0.32613,2.18973 -0.176007,0.74544 -0.40378,1.45982 -0.68332,2.14314 -0.269187,0.68332 -0.584963,1.27346 -0.94733,1.77042 h 3.80485 v -6.10329 z m 9.224809,-1.22687 c 0.71438,0 1.325227,0.1553 1.83254,0.4659 0.517667,0.3106 0.911093,0.75062 1.18028,1.32005 0.27954,0.55908 0.41931,1.21652 0.41931,1.97231 v 0.82309 h -5.69951 c 0.02071,0.94215 0.258833,1.66171 0.71438,2.15867 0.4659,0.48661 1.112983,0.72991 1.94125,0.72991 0.52802,0 0.99392,-0.0466 1.3977,-0.13977 0.414133,-0.10353 0.83862,-0.24848 1.27346,-0.43484 v 1.19581 c -0.424487,0.186359 -0.843797,0.320949 -1.25793,0.403779 -0.414133,0.0932 -0.905917,0.13977 -1.47535,0.13977 -0.786853,0 -1.485703,-0.16048 -2.09655,-0.481429 -0.600493,-0.32095 -1.07157,-0.79721 -1.41323,-1.42876 -0.331307,-0.64191 -0.49696,-1.42358 -0.49696,-2.34503 0,-0.91109 0.150123,-1.69277 0.45037,-2.34503 0.3106,-0.65226 0.740263,-1.1544 1.28899,-1.50641 0.55908,-0.35201 1.206163,-0.52802 1.94125,-0.52802 z m -0.01553,1.11816 c -0.65226,0 -1.169927,0.21224 -1.553,0.63673 -0.37272,0.41413 -0.595317,0.99392 -0.66779,1.73936 h 4.23969 c 0,-0.47625 -0.07247,-0.89039 -0.21742,-1.2424 -0.144947,-0.35201 -0.367543,-0.62638 -0.66779,-0.82309 -0.289893,-0.20707 -0.66779,-0.3106 -1.13369,-0.3106 z m 6.926367,-0.96286 v 3.46319 h 4.51923 v -3.46319 h 1.36664 v 8.324079 h -1.36664 v -3.711669 h -4.51923 v 3.711669 h -1.36664 v -8.324079 z m 14.272057,1.14922 h -2.71775 v 7.174859 h -1.35111 v -7.174859 h -2.686689 v -1.14922 h 6.755549 z m 4.798767,-1.28899 c 1.014627,0 1.765243,0.2226 2.25185,0.66779 0.486607,0.44519 0.72991,1.1544 0.72991,2.12761 v 5.668449 h -0.99392 l -0.26401,-1.180279 h -0.06212 c -0.238127,0.30025 -0.486607,0.5539 -0.74544,0.76097 -0.24848,0.196709 -0.538373,0.341659 -0.86968,0.434839 -0.320953,0.0932 -0.71438,0.13977 -1.18028,0.13977 -0.49696,0 -0.94733,-0.088 -1.35111,-0.26401 -0.393427,-0.17601 -0.704027,-0.445189 -0.9318,-0.807559 -0.227773,-0.37272 -0.34166,-0.83862 -0.34166,-1.3977 0,-0.82827 0.32613,-1.465 0.97839,-1.91019 0.65226,-0.45555 1.656533,-0.70403 3.01282,-0.74544 l 1.41323,-0.0466 v -0.49696 c 0,-0.69367 -0.150123,-1.1751 -0.45037,-1.44429 -0.300247,-0.26919 -0.724733,-0.40378 -1.27346,-0.40378 -0.43484,0 -0.848973,0.0673 -1.2424,0.20189 -0.393427,0.12424 -0.76097,0.26919 -1.10263,0.43484 l -0.41931,-1.02498 c 0.362367,-0.19671 0.79203,-0.36237 1.28899,-0.49696 0.49696,-0.14495 1.014627,-0.21742 1.553,-0.21742 z m 0.40378,4.44158 c -1.035333,0.0414 -1.75489,0.20705 -2.15867,0.49696 -0.393427,0.28989 -0.59014,0.69885 -0.59014,1.22687 0,0.4659 0.13977,0.80756 0.41931,1.02498 0.289893,0.21742 0.657437,0.32613 1.10263,0.32613 0.704027,0 1.28899,-0.19154 1.75489,-0.57461 0.4659,-0.39343 0.69885,-0.99392 0.69885,-1.80148 v -0.74544 z m 14.085725,-4.30181 v 8.324079 h -1.22687 v -5.311259 c 0,-0.21742 0.0052,-0.44519 0.01553,-0.68332 0.02071,-0.23813 0.04141,-0.47108 0.06212,-0.69885 h -0.04659 l -2.71775,6.693429 h -1.14922 l -2.6401,-6.693429 h -0.04659 c 0.02071,0.22777 0.03106,0.46072 0.03106,0.69885 0.01035,0.23813 0.01553,0.48143 0.01553,0.72991 v 5.264669 h -1.22687 v -8.324079 h 1.81701 l 2.62457,6.69343 2.67116,-6.69343 z m 3.944621,5.07831 c 0,0.0932 -0.0052,0.22777 -0.01553,0.40378 0,0.16565 -0.0052,0.34684 -0.01553,0.54355 -0.01035,0.18636 -0.02071,0.36754 -0.03106,0.54355 -0.01035,0.16565 -0.02071,0.30025 -0.03106,0.40378 l 4.45711,-6.97297 h 1.67724 v 8.324079 h -1.27346 v -4.907479 -0.65226 c 0.01035,-0.26919 0.02071,-0.5332 0.03106,-0.79203 0.01035,-0.26919 0.02071,-0.47108 0.03106,-0.60567 l -4.42605,6.957439 h -1.69277 v -8.324079 h 1.28899 z m 67.850571,1.61512 c -0.0932,0.36237 -0.21224,0.75579 -0.35719,1.18028 -0.14495,0.424489 -0.30542,0.843799 -0.48143,1.257929 -0.16565,0.42449 -0.33131,0.82309 -0.49696,1.19581 h -1.02498 c 0.0725,-0.28989 0.14495,-0.60049 0.21742,-0.9318 0.0828,-0.33131 0.16048,-0.66779 0.23295,-1.00945 0.0725,-0.33131 0.13459,-0.657439 0.18636,-0.978389 0.0621,-0.32095 0.1139,-0.61602 0.1553,-0.88521 h 1.45982 z m -1.75489,-5.85481 c 0,-0.39343 0.0932,-0.66779 0.27954,-0.82309 0.18636,-0.1553 0.40896,-0.23295 0.66779,-0.23295 0.26919,0 0.49696,0.0777 0.68332,0.23295 0.19671,0.1553 0.29507,0.42966 0.29507,0.82309 0,0.37272 -0.0984,0.64191 -0.29507,0.80756 -0.18636,0.16565 -0.41413,0.24848 -0.68332,0.24848 -0.25883,0 -0.48143,-0.0828 -0.66779,-0.24848 -0.18636,-0.16565 -0.27954,-0.43484 -0.27954,-0.80756 z"
       id="path8"
       sodipodi:nodetypes="sccsscscccssssssssccccscccccccccccccccccccccccsccccscccccccccccccccccccccccccccsccscccsccccsccsccsscccscsccccccccccccccccccccccsssccccccsccscccsssccccssccscscscccccsccccccccscccccccsccccccccccccccccscscccccccccssscscsss" />
    <path
       style="font-size:15.53px;text-align:center;text-anchor:middle;fill:#ffffff;stroke-width:1.29416"
       d="m 29.239769,130.82371 v 8.32408 h -1.36664 v -7.15933 h -4.30181 v 7.15933 h -1.36664 v -8.32408 z m 9.892618,4.14651 q 0,1.04051 -0.27954,1.84807 -0.26401,0.79203 -0.7765,1.35111 -0.49696,0.55908 -1.22687,0.85415 -0.71438,0.27954 -1.59959,0.27954 -0.82309,0 -1.52194,-0.27954 -0.69885,-0.29507 -1.21134,-0.85415 -0.51249,-0.55908 -0.80756,-1.35111 -0.27954,-0.80756 -0.27954,-1.84807 0,-1.38217 0.4659,-2.3295 0.4659,-0.96286 1.33558,-1.45982 0.86968,-0.51249 2.06549,-0.51249 1.13369,0 1.98784,0.51249 0.86968,0.49696 1.35111,1.45982 0.49696,0.94733 0.49696,2.3295 z m -6.28965,0 q 0,0.97839 0.24848,1.7083 0.26401,0.71438 0.80756,1.10263 0.54355,0.38825 1.38217,0.38825 0.83862,0 1.38217,-0.38825 0.54355,-0.38825 0.79203,-1.10263 0.26401,-0.72991 0.26401,-1.7083 0,-0.99392 -0.26401,-1.69277 -0.26401,-0.69885 -0.80756,-1.07157 -0.52802,-0.38825 -1.38217,-0.38825 -1.27346,0 -1.84807,0.83862 -0.57461,0.83862 -0.57461,2.31397 z m 14.629252,-4.14651 v 7.17486 h 1.21134 v 4.0378 h -1.32005 v -2.88858 h -5.79269 v 2.88858 h -1.30452 v -4.0378 h 0.66779 q 0.71438,-0.99392 1.18028,-2.15867 0.48143,-1.18028 0.71438,-2.45374 0.24848,-1.28899 0.26401,-2.56245 z m -3.16812,1.07157 q -0.06212,1.05604 -0.32613,2.18973 -0.26401,1.11816 -0.68332,2.14314 -0.40378,1.02498 -0.94733,1.77042 h 3.80485 v -6.10329 z m 9.970251,-1.22687 q 1.53747,0 2.46927,1.07157 0.94733,1.07157 0.94733,3.23024 0,1.41323 -0.43484,2.39162 -0.41931,0.96286 -1.19581,1.45982 -0.76097,0.48143 -1.80148,0.48143 -0.63673,0 -1.13369,-0.17083 -0.49696,-0.17083 -0.85415,-0.43484 -0.34166,-0.27954 -0.59014,-0.60567 h -0.09318 q 0.03106,0.26401 0.06212,0.66779 0.03106,0.40378 0.03106,0.69885 v 3.4166 h -1.36664 v -12.05128 h 1.11816 l 0.18636,1.13369 h 0.06212 q 0.24848,-0.35719 0.59014,-0.65226 0.35719,-0.29507 0.83862,-0.4659 0.49696,-0.17083 1.16475,-0.17083 z m -0.24848,1.14922 q -0.83862,0 -1.35111,0.32613 -0.51249,0.3106 -0.74544,0.94733 -0.23295,0.63673 -0.24848,1.61512 v 0.26401 q 0,1.02498 0.21742,1.73936 0.21742,0.71438 0.72991,1.0871 0.52802,0.37272 1.42876,0.37272 0.76097,0 1.2424,-0.41931 0.49696,-0.41931 0.72991,-1.13369 0.24848,-0.72991 0.24848,-1.66171 0,-1.42876 -0.55908,-2.28291 -0.54355,-0.85415 -1.69277,-0.85415 z m 13.076255,3.15259 q 0,1.04051 -0.27954,1.84807 -0.26401,0.79203 -0.7765,1.35111 -0.49696,0.55908 -1.22687,0.85415 -0.71438,0.27954 -1.59959,0.27954 -0.82309,0 -1.52194,-0.27954 -0.69885,-0.29507 -1.21134,-0.85415 -0.51249,-0.55908 -0.80756,-1.35111 -0.27954,-0.80756 -0.27954,-1.84807 0,-1.38217 0.4659,-2.3295 0.4659,-0.96286 1.33558,-1.45982 0.86968,-0.51249 2.06549,-0.51249 1.13369,0 1.98784,0.51249 0.86968,0.49696 1.35111,1.45982 0.49696,0.94733 0.49696,2.3295 z m -6.28965,0 q 0,0.97839 0.24848,1.7083 0.26401,0.71438 0.80756,1.10263 0.54355,0.38825 1.38217,0.38825 0.83862,0 1.38217,-0.38825 0.54355,-0.38825 0.79203,-1.10263 0.26401,-0.72991 0.26401,-1.7083 0,-0.99392 -0.26401,-1.69277 -0.26401,-0.69885 -0.80756,-1.07157 -0.52802,-0.38825 -1.38217,-0.38825 -1.27346,0 -1.84807,0.83862 -0.57461,0.83862 -0.57461,2.31397 z m 8.013472,-0.82309 q 0,-1.81701 0.35719,-3.09047 0.37272,-1.28899 1.133689,-2.04996 0.7765,-0.7765 1.98784,-1.04051 1.00945,-0.21742 1.97231,-0.38825 0.96286,-0.17083 1.80148,-0.3106 l 0.23295,1.19581 q -0.40378,0.0621 -0.90074,0.1553 -0.49696,0.0777 -1.00945,0.17083 -0.51249,0.0777 -0.99392,0.17083 -0.4659,0.0777 -0.82309,0.1553 -0.66779,0.13977 -1.16475,0.55908 -0.49696,0.40378 -0.7765,1.16475 -0.27954,0.74544 -0.32613,1.91019 h 0.09318 q 0.21742,-0.29507 0.59014,-0.60567 0.38825,-0.3106 0.91627,-0.52802 0.54355,-0.21742 1.22687,-0.21742 1.0871,0 1.80148,0.48143 0.72991,0.4659 1.0871,1.30452 0.37272,0.83862 0.37272,1.95678 0,1.38217 -0.48143,2.31397 -0.48143,0.9318 -1.33558,1.3977 -0.85415,0.45037 -1.98784,0.45037 -0.85415,0 -1.553,-0.32613 -0.69885,-0.34166 -1.195809,-0.99392 -0.49696,-0.65226 -0.76097,-1.61512 -0.26401,-0.96286 -0.26401,-2.22079 z m 3.882499,4.02227 q 0.68332,0 1.18028,-0.27954 0.51249,-0.27954 0.79203,-0.91627 0.27954,-0.63673 0.27954,-1.69277 0,-1.27346 -0.48143,-2.00337 -0.4659,-0.74544 -1.553,-0.74544 -0.68332,0 -1.2424,0.3106 -0.55908,0.29507 -0.9318,0.68332 -0.37272,0.38825 -0.528019,0.65226 0,0.76097 0.108709,1.47535 0.10871,0.71438 0.37272,1.28899 0.27954,0.55908 0.76097,0.90074 0.49696,0.32613 1.2424,0.32613 z m 7.221467,-7.34569 v 3.46319 h 4.51923 v -3.46319 h 1.36664 v 8.32408 h -1.36664 v -3.71167 h -4.51923 v 3.71167 h -1.36664 v -8.32408 z m 11.740667,-0.1553 q 1.07157,0 1.83254,0.4659 0.7765,0.4659 1.18028,1.32005 0.41931,0.83862 0.41931,1.97231 v 0.82309 h -5.69951 q 0.03106,1.41323 0.71438,2.15867 0.69885,0.72991 1.94125,0.72991 0.79203,0 1.3977,-0.13977 0.6212,-0.1553 1.27346,-0.43484 v 1.19581 q -0.63673,0.27954 -1.25793,0.40378 -0.6212,0.13977 -1.47535,0.13977 -1.18028,0 -2.09655,-0.48143 -0.90074,-0.48143 -1.41323,-1.42876 -0.49696,-0.96286 -0.49696,-2.34503 0,-1.36664 0.45037,-2.34503 0.4659,-0.97839 1.28899,-1.50641 0.83862,-0.52802 1.94125,-0.52802 z m -0.01553,1.11816 q -0.97839,0 -1.553,0.63673 -0.55908,0.6212 -0.66779,1.73936 h 4.23969 q 0,-0.71438 -0.21742,-1.2424 -0.21742,-0.52802 -0.66779,-0.82309 -0.43484,-0.3106 -1.13369,-0.3106 z m 8.77443,-1.11816 q 1.07157,0 1.83254,0.4659 0.7765,0.4659 1.18028,1.32005 0.41931,0.83862 0.41931,1.97231 v 0.82309 h -5.699506 q 0.03106,1.41323 0.71438,2.15867 0.69885,0.72991 1.941246,0.72991 0.79203,0 1.3977,-0.13977 0.6212,-0.1553 1.27346,-0.43484 v 1.19581 q -0.63673,0.27954 -1.25793,0.40378 -0.6212,0.13977 -1.47535,0.13977 -1.180276,0 -2.096546,-0.48143 -0.90074,-0.48143 -1.41323,-1.42876 -0.49696,-0.96286 -0.49696,-2.34503 0,-1.36664 0.45037,-2.34503 0.4659,-0.97839 1.28899,-1.50641 0.83862,-0.52802 1.941246,-0.52802 z m -0.0155,1.11816 q -0.978386,0 -1.552996,0.63673 -0.55908,0.6212 -0.66779,1.73936 h 4.239686 q 0,-0.71438 -0.21742,-1.2424 -0.21742,-0.52802 -0.66779,-0.82309 -0.43484,-0.3106 -1.13369,-0.3106 z m 16.83452,3.18365 q 0,1.04051 -0.27954,1.84807 -0.26401,0.79203 -0.7765,1.35111 -0.49696,0.55908 -1.22687,0.85415 -0.71438,0.27954 -1.59959,0.27954 -0.82309,0 -1.52194,-0.27954 -0.69885,-0.29507 -1.21134,-0.85415 -0.51249,-0.55908 -0.80756,-1.35111 -0.27954,-0.80756 -0.27954,-1.84807 0,-1.38217 0.4659,-2.3295 0.4659,-0.96286 1.33558,-1.45982 0.86968,-0.51249 2.06549,-0.51249 1.13369,0 1.98784,0.51249 0.86968,0.49696 1.35111,1.45982 0.49696,0.94733 0.49696,2.3295 z m -6.28965,0 q 0,0.97839 0.24848,1.7083 0.26401,0.71438 0.80756,1.10263 0.54355,0.38825 1.38217,0.38825 0.83862,0 1.38217,-0.38825 0.54355,-0.38825 0.79203,-1.10263 0.26401,-0.72991 0.26401,-1.7083 0,-0.99392 -0.26401,-1.69277 -0.26401,-0.69885 -0.80756,-1.07157 -0.52802,-0.38825 -1.38217,-0.38825 -1.27346,0 -1.84807,0.83862 -0.57461,0.83862 -0.57461,2.31397 z m 13.85275,-4.14651 v 3.46319 h 4.51923 v -3.46319 h 1.36664 v 8.32408 h -1.36664 v -3.71167 h -4.51923 v 3.71167 h -1.36664 v -8.32408 z m 11.74067,-0.1553 q 1.07157,0 1.83254,0.4659 0.7765,0.4659 1.18028,1.32005 0.41931,0.83862 0.41931,1.97231 v 0.82309 h -5.69951 q 0.0311,1.41323 0.71438,2.15867 0.69885,0.72991 1.94125,0.72991 0.79203,0 1.3977,-0.13977 0.6212,-0.1553 1.27346,-0.43484 v 1.19581 q -0.63673,0.27954 -1.25793,0.40378 -0.6212,0.13977 -1.47535,0.13977 -1.18028,0 -2.09655,-0.48143 -0.90074,-0.48143 -1.41323,-1.42876 -0.49696,-0.96286 -0.49696,-2.34503 0,-1.36664 0.45037,-2.34503 0.4659,-0.97839 1.28899,-1.50641 0.83862,-0.52802 1.94125,-0.52802 z m -0.0155,1.11816 q -0.97839,0 -1.553,0.63673 -0.55908,0.6212 -0.66779,1.73936 h 4.23969 q 0,-0.71438 -0.21742,-1.2424 -0.21742,-0.52802 -0.66779,-0.82309 -0.43484,-0.3106 -1.13369,-0.3106 z m 14.48947,-0.96286 v 8.32408 h -1.22687 v -5.31126 q 0,-0.32613 0.0155,-0.68332 0.0311,-0.35719 0.0621,-0.69885 h -0.0466 l -2.71775,6.69343 h -1.14922 l -2.6401,-6.69343 h -0.0466 q 0.0311,0.34166 0.0311,0.69885 0.0155,0.35719 0.0155,0.72991 v 5.26467 h -1.22687 v -8.32408 h 1.81701 l 2.62457,6.69343 2.67116,-6.69343 z"
       id="path9" />
    <path
       style="font-size:15.53px;text-align:center;text-anchor:middle;fill:#ffffff;stroke-width:1.29416"
       d="m 43.418663,150.23621 v 8.32408 h -1.22687 v -5.31126 c 0,-0.21742 0.0052,-0.44519 0.01553,-0.68332 0.02071,-0.23813 0.04141,-0.47108 0.06212,-0.69885 h -0.04659 l -2.71775,6.69343 h -1.14922 l -2.6401,-6.69343 h -0.04659 c 0.02071,0.22777 0.03106,0.46072 0.03106,0.69885 0.01035,0.23813 0.01553,0.48143 0.01553,0.72991 v 5.26467 h -1.22687 v -8.32408 h 1.81701 l 2.62457,6.69343 2.67116,-6.69343 z m 9.892615,4.14651 c 0,0.69367 -0.09318,1.3097 -0.27954,1.84807 -0.176007,0.52802 -0.43484,0.97839 -0.7765,1.35111 -0.331307,0.37272 -0.740263,0.65744 -1.22687,0.85415 -0.476253,0.18636 -1.00945,0.27954 -1.59959,0.27954 -0.548727,0 -1.05604,-0.0932 -1.52194,-0.27954 -0.4659,-0.19671 -0.86968,-0.48143 -1.21134,-0.85415 -0.34166,-0.37272 -0.610847,-0.82309 -0.80756,-1.35111 -0.18636,-0.53837 -0.27954,-1.1544 -0.27954,-1.84807 0,-0.92145 0.1553,-1.69795 0.4659,-2.3295 0.3106,-0.64191 0.755793,-1.12851 1.33558,-1.45982 0.579787,-0.34166 1.268283,-0.51249 2.06549,-0.51249 0.755793,0 1.418407,0.17083 1.98784,0.51249 0.579787,0.33131 1.030157,0.81791 1.35111,1.45982 0.331307,0.63155 0.49696,1.40805 0.49696,2.3295 z m -6.28965,0 c 0,0.65226 0.08283,1.22169 0.24848,1.7083 0.176007,0.47625 0.445193,0.8438 0.80756,1.10263 0.362367,0.25883 0.82309,0.38825 1.38217,0.38825 0.55908,0 1.019803,-0.12942 1.38217,-0.38825 0.362367,-0.25883 0.626377,-0.62638 0.79203,-1.10263 0.176007,-0.48661 0.26401,-1.05604 0.26401,-1.7083 0,-0.66261 -0.088,-1.22687 -0.26401,-1.69277 -0.176007,-0.4659 -0.445193,-0.82309 -0.80756,-1.07157 -0.352013,-0.25883 -0.812737,-0.38825 -1.38217,-0.38825 -0.848973,0 -1.464997,0.27954 -1.84807,0.83862 -0.383073,0.55908 -0.57461,1.3304 -0.57461,2.31397 z m 18.123495,-4.14651 -3.43213,4.0378 3.7272,4.28628 h -1.553 l -3.60296,-4.22416 v 4.22416 h -1.27346 v -4.22416 l -3.60296,4.22416 h -1.553 l 3.7272,-4.28628 -3.43213,-4.0378 h 1.49088 l 3.37001,4.0378 v -4.0378 h 1.27346 v 4.0378 l 3.38554,-4.0378 z m 3.028351,0 v 3.46319 h 4.51923 v -3.46319 h 1.36664 v 8.32408 h -1.36664 v -3.71167 h -4.51923 v 3.71167 h -1.36664 v -8.32408 z m 15.762937,4.14651 c 0,0.69367 -0.09318,1.3097 -0.27954,1.84807 -0.176007,0.52802 -0.43484,0.97839 -0.7765,1.35111 -0.331307,0.37272 -0.740263,0.65744 -1.22687,0.85415 -0.476253,0.18636 -1.00945,0.27954 -1.59959,0.27954 -0.548727,0 -1.05604,-0.0932 -1.52194,-0.27954 -0.4659,-0.19671 -0.86968,-0.48143 -1.21134,-0.85415 -0.34166,-0.37272 -0.610847,-0.82309 -0.80756,-1.35111 -0.18636,-0.53837 -0.27954,-1.1544 -0.27954,-1.84807 0,-0.92145 0.1553,-1.69795 0.4659,-2.3295 0.3106,-0.64191 0.755793,-1.12851 1.33558,-1.45982 0.579787,-0.34166 1.268283,-0.51249 2.06549,-0.51249 0.755793,0 1.418407,0.17083 1.98784,0.51249 0.579787,0.33131 1.030157,0.81791 1.35111,1.45982 0.331307,0.63155 0.49696,1.40805 0.49696,2.3295 z m -6.28965,0 c 0,0.65226 0.08283,1.22169 0.24848,1.7083 0.176007,0.47625 0.445193,0.8438 0.80756,1.10263 0.362367,0.25883 0.82309,0.38825 1.38217,0.38825 0.55908,0 1.019803,-0.12942 1.38217,-0.38825 0.362367,-0.25883 0.626377,-0.62638 0.79203,-1.10263 0.176007,-0.48661 0.26401,-1.05604 0.26401,-1.7083 0,-0.66261 -0.088,-1.22687 -0.26401,-1.69277 -0.176007,-0.4659 -0.445193,-0.82309 -0.80756,-1.07157 -0.352013,-0.25883 -0.812737,-0.38825 -1.38217,-0.38825 -0.848973,0 -1.464997,0.27954 -1.84807,0.83862 -0.383073,0.55908 -0.57461,1.3304 -0.57461,2.31397 z m 11.181595,-4.14651 h 1.45982 l 1.80148,4.73665 c 0.103533,0.27954 0.196713,0.54873 0.27954,0.80756 0.09318,0.25883 0.176007,0.51249 0.24848,0.76097 0.07247,0.23813 0.129417,0.47108 0.17083,0.69885 h 0.06212 c 0.06212,-0.25883 0.160477,-0.59532 0.29507,-1.00945 0.134593,-0.42449 0.274363,-0.84897 0.41931,-1.27346 l 1.69277,-4.72112 h 1.47535 l -3.58743,9.4733 c -0.196713,0.51767 -0.429663,0.96804 -0.69885,1.35111 -0.258833,0.39343 -0.579787,0.69367 -0.96286,0.90074 -0.37272,0.21742 -0.828267,0.32613 -1.36664,0.32613 -0.24848,0 -0.4659,-0.0155 -0.65226,-0.0466 -0.18636,-0.0207 -0.346837,-0.0466 -0.48143,-0.0777 v -1.0871 c 0.113887,0.0207 0.24848,0.0414 0.40378,0.0621 0.165653,0.0207 0.336483,0.0311 0.51249,0.0311 0.320953,0 0.595317,-0.0621 0.82309,-0.18636 0.238127,-0.11389 0.440017,-0.28472 0.60567,-0.51249 0.165653,-0.21742 0.305423,-0.47625 0.41931,-0.7765 l 0.43484,-1.10263 z m 11.414554,-0.1553 c 0.63155,0 1.18028,0.088 1.64618,0.26401 0.4659,0.16565 0.82827,0.41413 1.0871,0.74544 0.25883,0.32095 0.38825,0.71438 0.38825,1.18028 0,0.50731 -0.13977,0.91109 -0.41931,1.21134 -0.27954,0.28989 -0.66261,0.50214 -1.14922,0.63673 v 0.0621 c 0.33131,0.0932 0.63673,0.2226 0.91627,0.38825 0.27954,0.16565 0.50214,0.38307 0.66779,0.65226 0.17601,0.26919 0.26401,0.61602 0.26401,1.04051 0,0.45555 -0.12942,0.86968 -0.38825,1.2424 -0.24848,0.37272 -0.63673,0.66779 -1.16475,0.88521 -0.51767,0.21742 -1.18546,0.32613 -2.00337,0.32613 -0.393428,0 -0.771324,-0.0207 -1.133691,-0.0621 -0.352013,-0.0414 -0.672966,-0.10352 -0.962859,-0.18636 -0.27954,-0.0828 -0.52802,-0.18118 -0.74544,-0.29507 v -1.22687 c 0.352013,0.16565 0.766146,0.31578 1.242399,0.45037 0.486607,0.13459 1.014627,0.20189 1.584061,0.20189 0.41413,0 0.78685,-0.0466 1.11816,-0.13977 0.34166,-0.0932 0.61085,-0.23813 0.80756,-0.43484 0.19671,-0.20707 0.29507,-0.48661 0.29507,-0.83862 0,-0.32095 -0.088,-0.57979 -0.26401,-0.7765 -0.17601,-0.20707 -0.44002,-0.36237 -0.79203,-0.4659 -0.34166,-0.10353 -0.78168,-0.1553 -1.320051,-0.1553 h -1.11816 v -1.11816 h 0.90074 c 0.714381,0 1.283811,-0.0932 1.708301,-0.27954 0.43484,-0.19671 0.65226,-0.52802 0.65226,-0.99392 0,-0.39343 -0.16565,-0.6885 -0.49696,-0.88521 -0.32095,-0.19671 -0.78685,-0.29507 -1.3977,-0.29507 -0.455548,0 -0.859328,0.0466 -1.211341,0.13977 -0.34166,0.0828 -0.719556,0.21224 -1.133689,0.38825 l -0.48143,-1.0871 c 0.445193,-0.19671 0.911093,-0.34166 1.397699,-0.43484 0.486607,-0.0932 0.988743,-0.13977 1.506411,-0.13977 z m 6.78661,0.1553 v 3.46319 h 4.51923 v -3.46319 h 1.36664 v 8.32408 h -1.36664 v -3.71167 h -4.51923 v 3.71167 h -1.36664 v -8.32408 z m 11.67854,-0.13977 c 1.01463,0 1.76525,0.2226 2.25185,0.66779 0.48661,0.44519 0.72991,1.1544 0.72991,2.12761 v 5.66845 h -0.99392 l -0.26401,-1.18028 h -0.0621 c -0.23812,0.30025 -0.4866,0.5539 -0.74544,0.76097 -0.24848,0.19671 -0.53837,0.34166 -0.86968,0.43484 -0.32095,0.0932 -0.71438,0.13977 -1.18028,0.13977 -0.49696,0 -0.94733,-0.088 -1.35111,-0.26401 -0.39342,-0.17601 -0.70402,-0.44519 -0.9318,-0.80756 -0.22777,-0.37272 -0.34166,-0.83862 -0.34166,-1.3977 0,-0.82827 0.32613,-1.465 0.97839,-1.91019 0.65226,-0.45555 1.65654,-0.70403 3.01282,-0.74544 l 1.41323,-0.0466 v -0.49696 c 0,-0.69367 -0.15012,-1.1751 -0.45037,-1.44429 -0.30024,-0.26919 -0.72473,-0.40378 -1.27346,-0.40378 -0.43484,0 -0.84897,0.0673 -1.2424,0.20189 -0.39342,0.12424 -0.76097,0.26919 -1.10263,0.43484 l -0.41931,-1.02498 c 0.36237,-0.19671 0.79203,-0.36237 1.28899,-0.49696 0.49696,-0.14495 1.01463,-0.21742 1.553,-0.21742 z m 0.40378,4.44158 c -1.03533,0.0414 -1.75489,0.20705 -2.15867,0.49696 -0.39342,0.28989 -0.59014,0.69885 -0.59014,1.22687 0,0.4659 0.13977,0.80756 0.41931,1.02498 0.2899,0.21742 0.65744,0.32613 1.10263,0.32613 0.70403,0 1.28899,-0.19154 1.75489,-0.57461 0.4659,-0.39343 0.69885,-0.99392 0.69885,-1.80148 v -0.74544 z m 10.90208,-3.15259 h -2.71775 v 7.17486 h -1.35111 v -7.17486 h -2.68669 v -1.14922 h 6.75555 z m 5.48209,2.26738 c 0.72473,0 1.32523,0.088 1.80148,0.26401 0.47625,0.17601 0.83344,0.44002 1.07157,0.79203 0.24848,0.34166 0.37272,0.7765 0.37272,1.30452 0,0.51767 -0.11906,0.96804 -0.35719,1.35111 -0.22777,0.38307 -0.58496,0.67814 -1.07157,0.88521 -0.48661,0.20707 -1.11298,0.3106 -1.87913,0.3106 h -3.77379 v -8.32408 h 1.36664 v 3.4166 z m 1.87913,2.43821 c 0,-0.50731 -0.18118,-0.84897 -0.54355,-1.02498 -0.35201,-0.18636 -0.84897,-0.27954 -1.49088,-0.27954 h -2.31397 v 2.67116 h 2.34503 c 0.57979,0 1.05604,-0.10353 1.42876,-0.3106 0.38307,-0.20707 0.57461,-0.55908 0.57461,-1.05604 z"
       id="path10"
       sodipodi:nodetypes="cccsccccccccscccccccscccscscsccsccsscssscsscsssccccccccccccccccccccccccccccccccscccscscsccsccsscssscsscsssccccccccccccccsccccscccccsccscccscsccscccccsccsccsccscscscccsscccccccccccccsssccccccsccscccsssccccssccscscscccccccccccsscscssccccsscsccscs" />
    <text
       xml:space="preserve"
       style="font-size:15.53px;text-align:start;text-anchor:start;display:none;fill:#000000;fill-opacity:1;stroke-width:1.29416"
       x="254.17084"
       y="169.20647"
       id="text16"><tspan
         sodipodi:role="line"
         style="text-align:center;text-anchor:middle;fill:#000000;stroke-width:1.29416"
         x="254.17084"
         y="169.20647"
         id="tspan15">Пример:</tspan><tspan
         sodipodi:role="line"
         style="text-align:center;text-anchor:middle;fill:#000000;stroke-width:1.29416"
         x="254.17084"
         y="188.61897"
         id="tspan16">карта мира</tspan></text>
    <g
       id="text16-9"
       style="font-size:15.53px;fill:#ffbf00;stroke-width:1.29416"
       aria-label="github.com/&#10;alexanderthesensei/&#10;map">
      <path
         style="text-align:center;text-anchor:middle"
         d="m 45.536665,172.87742 q 0.82309,0 1.47535,0.3106 0.66779,0.3106 1.13369,0.94733 h 0.07765 l 0.18636,-1.10263 h 1.0871 v 8.46385 q 0,1.18028 -0.40378,1.97231 -0.40378,0.80756 -1.22687,1.21134 -0.82309,0.40378 -2.09655,0.40378 -0.90074,0 -1.66171,-0.13977 -0.74544,-0.12424 -1.33558,-0.38825 v -1.25793 q 0.59014,0.3106 1.38217,0.48143 0.79203,0.17083 1.69277,0.17083 1.07157,0 1.67724,-0.63673 0.6212,-0.6212 0.6212,-1.7083 v -0.32613 q 0,-0.18636 0.01553,-0.52802 0.01553,-0.35719 0.03106,-0.49696 h -0.06212 q -0.43484,0.63673 -1.0871,0.94733 -0.63673,0.3106 -1.49088,0.3106 -1.61512,0 -2.53139,-1.13369 -0.90074,-1.13369 -0.90074,-3.16812 0,-1.98784 0.90074,-3.15259 0.91627,-1.18028 2.51586,-1.18028 z m 0.18636,1.14922 q -0.69885,0 -1.19581,0.37272 -0.48143,0.37272 -0.74544,1.0871 -0.24848,0.71438 -0.24848,1.73936 0,1.53747 0.55908,2.36056 0.57461,0.80756 1.66171,0.80756 0.63673,0 1.0871,-0.1553 0.45037,-0.17083 0.74544,-0.51249 0.29507,-0.35719 0.43484,-0.90074 0.13977,-0.54355 0.13977,-1.28899 v -0.32613 q 0,-1.13369 -0.26401,-1.83254 -0.24848,-0.69885 -0.79203,-1.02498 -0.54355,-0.32613 -1.38217,-0.32613 z m 7.780526,-0.99392 v 8.32408 h -1.36664 v -8.32408 z m -0.66779,-3.12153 q 0.3106,0 0.54355,0.21742 0.24848,0.20189 0.24848,0.65226 0,0.43484 -0.24848,0.65226 -0.23295,0.21742 -0.54355,0.21742 -0.34166,0 -0.57461,-0.21742 -0.23295,-0.21742 -0.23295,-0.65226 0,-0.45037 0.23295,-0.65226 0.23295,-0.21742 0.57461,-0.21742 z m 6.087751,10.48275 q 0.3106,0 0.63673,-0.0466 0.32613,-0.0621 0.52802,-0.12424 v 1.04051 q -0.21742,0.10871 -0.6212,0.17083 -0.40378,0.0777 -0.7765,0.0777 -0.65226,0 -1.21134,-0.21742 -0.54355,-0.23295 -0.88521,-0.79203 -0.34166,-0.55908 -0.34166,-1.56853 v -4.84536 h -1.18028 v -0.65226 l 1.19581,-0.54355 0.54355,-1.77042 h 0.80756 v 1.91019 h 2.40715 v 1.05604 h -2.40715 v 4.8143 q 0,0.76097 0.35719,1.13369 0.37272,0.35719 0.94733,0.35719 z m 4.193102,-7.37675 q 0,0.29507 -0.03106,0.60567 -0.01553,0.3106 -0.04659,0.55908 h 0.09318 q 0.26401,-0.43484 0.66779,-0.71438 0.40378,-0.27954 0.90074,-0.41931 0.49696,-0.1553 1.02498,-0.1553 1.00945,0 1.67724,0.32613 0.68332,0.3106 1.02498,0.97839 0.34166,0.66779 0.34166,1.73936 v 5.41997 h -1.35111 v -5.32679 q 0,-1.00945 -0.45037,-1.50641 -0.45037,-0.49696 -1.41323,-0.49696 -0.9318,0 -1.45982,0.35719 -0.52802,0.34166 -0.76097,1.02498 -0.21742,0.66779 -0.21742,1.64618 v 4.30181 h -1.36664 V 169.554 h 1.36664 z m 15.188338,0.0155 v 8.32408 h -1.11816 l -0.20189,-1.10263 h -0.06212 q -0.26401,0.43484 -0.68332,0.71438 -0.41931,0.27954 -0.91627,0.40378 -0.49696,0.13977 -1.04051,0.13977 -0.99392,0 -1.67724,-0.3106 -0.66779,-0.32613 -1.00945,-0.99392 -0.34166,-0.66779 -0.34166,-1.72383 v -5.45103 h 1.38217 v 5.35785 q 0,0.99392 0.45037,1.49088 0.45037,0.49696 1.3977,0.49696 0.9318,0 1.45982,-0.34166 0.54355,-0.35719 0.76097,-1.02498 0.23295,-0.68332 0.23295,-1.64618 v -4.33287 z m 4.006742,-0.60567 q 0,0.52802 -0.03106,0.99392 -0.01553,0.45037 -0.04659,0.71438 h 0.07765 q 0.35719,-0.52802 0.97839,-0.88521 0.6212,-0.35719 1.59959,-0.35719 1.553,0 2.4848,1.0871 0.94733,1.07157 0.94733,3.21471 0,1.42876 -0.43484,2.39162 -0.41931,0.96286 -1.19581,1.44429 -0.7765,0.48143 -1.80148,0.48143 -0.97839,0 -1.59959,-0.35719 -0.6212,-0.35719 -0.97839,-0.85415 h -0.10871 l -0.27954,1.05604 h -0.97839 V 169.554 h 1.36664 z m 2.34503,1.59959 q -0.88521,0 -1.3977,0.34166 -0.51249,0.32613 -0.72991,1.02498 -0.21742,0.68332 -0.21742,1.75489 v 0.0621 q 0,1.53747 0.49696,2.36056 0.51249,0.80756 1.87913,0.80756 1.11816,0 1.66171,-0.82309 0.55908,-0.82309 0.55908,-2.37609 0,-1.56853 -0.55908,-2.36056 -0.54355,-0.79203 -1.69277,-0.79203 z m 5.637385,6.49154 q 0,-0.57461 0.27954,-0.80756 0.27954,-0.23295 0.66779,-0.23295 0.40378,0 0.68332,0.23295 0.29507,0.23295 0.29507,0.80756 0,0.55908 -0.29507,0.80756 -0.27954,0.24848 -0.68332,0.24848 -0.38825,0 -0.66779,-0.24848 -0.27954,-0.24848 -0.27954,-0.80756 z m 7.702873,0.99392 q -1.10263,0 -1.97231,-0.45037 -0.85415,-0.45037 -1.35111,-1.3977 -0.48143,-0.94733 -0.48143,-2.42268 0,-1.53747 0.51249,-2.50033 0.51249,-0.96286 1.38217,-1.41323 0.88521,-0.45037 2.00337,-0.45037 0.63673,0 1.22687,0.13977 0.59014,0.12424 0.962858,0.3106 l -0.419308,1.13369 q -0.37272,-0.13977 -0.86968,-0.26401 -0.49696,-0.12424 -0.9318,-0.12424 -0.83862,0 -1.38217,0.35719 -0.54355,0.35719 -0.80756,1.05604 -0.26401,0.69885 -0.26401,1.73936 0,0.99392 0.26401,1.69277 0.26401,0.69885 0.79203,1.05604 0.52802,0.35719 1.32005,0.35719 0.68332,0 1.19581,-0.13977 0.52802,-0.13977 0.962858,-0.34166 v 1.21134 q -0.419308,0.21742 -0.931798,0.32613 -0.49696,0.12424 -1.21134,0.12424 z m 11.352428,-4.33287 q 0,1.04051 -0.27954,1.84807 -0.26401,0.79203 -0.7765,1.35111 -0.49696,0.55908 -1.22687,0.85415 -0.71438,0.27954 -1.59959,0.27954 -0.82309,0 -1.52194,-0.27954 -0.69885,-0.29507 -1.21134,-0.85415 -0.51249,-0.55908 -0.80756,-1.35111 -0.27954,-0.80756 -0.27954,-1.84807 0,-1.38217 0.4659,-2.3295 0.4659,-0.96286 1.33558,-1.45982 0.86968,-0.51249 2.06549,-0.51249 1.13369,0 1.98784,0.51249 0.86968,0.49696 1.35111,1.45982 0.49696,0.94733 0.49696,2.3295 z m -6.28965,0 q 0,0.97839 0.24848,1.7083 0.26401,0.71438 0.80756,1.10263 0.54355,0.38825 1.38217,0.38825 0.83862,0 1.38217,-0.38825 0.54355,-0.38825 0.79203,-1.10263 0.26401,-0.72991 0.26401,-1.7083 0,-0.99392 -0.26401,-1.69277 -0.26401,-0.69885 -0.80756,-1.07157 -0.52802,-0.38825 -1.38217,-0.38825 -1.27346,0 -1.84807,0.83862 -0.57461,0.83862 -0.57461,2.31397 z m 17.57995,-4.30181 q 1.41323,0 2.11208,0.72991 0.69885,0.71438 0.69885,2.3295 v 5.41997 h -1.35111 v -5.35785 q 0,-0.97839 -0.41931,-1.47535 -0.40378,-0.49696 -1.27346,-0.49696 -1.21134,0 -1.73936,0.69885 -0.51249,0.69885 -0.51249,2.03443 v 4.59688 h -1.35111 v -5.35785 q 0,-0.65226 -0.18636,-1.0871 -0.18636,-0.45037 -0.55908,-0.66779 -0.37272,-0.21742 -0.96286,-0.21742 -0.83862,0 -1.32005,0.35719 -0.48143,0.34166 -0.69885,1.00945 -0.20189,0.66779 -0.20189,1.64618 v 4.31734 h -1.36664 v -8.32408 h 1.10263 l 0.20189,1.13369 h 0.0777 q 0.26401,-0.43484 0.63673,-0.71438 0.38825,-0.29507 0.85415,-0.43484 0.4659,-0.13977 0.96286,-0.13977 0.96286,0 1.59959,0.34166 0.65226,0.34166 0.94733,1.05604 h 0.0776 q 0.41931,-0.71438 1.13369,-1.05604 0.72991,-0.34166 1.53747,-0.34166 z m 9.69071,-2.60904 -4.13098,11.08842 h -1.33558 l 4.13098,-11.08842 z"
         id="path2" />
      <path
         style="text-align:center;text-anchor:middle"
         d="m 16.270395,192.30545 q 1.52194,0 2.25185,0.66779 0.72991,0.66779 0.72991,2.12761 v 5.66845 h -0.99392 l -0.26401,-1.18028 h -0.06212 q -0.35719,0.45037 -0.74544,0.76097 -0.37272,0.29507 -0.86968,0.43484 -0.48143,0.13977 -1.18028,0.13977 -0.74544,0 -1.35111,-0.26401 -0.59014,-0.26401 -0.9318,-0.80756 -0.34166,-0.55908 -0.34166,-1.3977 0,-1.2424 0.97839,-1.91019 0.97839,-0.68332 3.01282,-0.74544 l 1.41323,-0.0466 v -0.49696 q 0,-1.04051 -0.45037,-1.44429 -0.45037,-0.40378 -1.27346,-0.40378 -0.65226,0 -1.2424,0.20189 -0.59014,0.18636 -1.10263,0.43484 l -0.41931,-1.02498 q 0.54355,-0.29507 1.28899,-0.49696 0.74544,-0.21742 1.553,-0.21742 z m 0.40378,4.44158 q -1.553,0.0621 -2.15867,0.49696 -0.59014,0.43484 -0.59014,1.22687 0,0.69885 0.41931,1.02498 0.43484,0.32613 1.10263,0.32613 1.05604,0 1.75489,-0.57461 0.69885,-0.59014 0.69885,-1.80148 v -0.74544 z m 6.522612,4.02227 h -1.36664 v -11.8028 h 1.36664 z m 5.854801,-8.47938 q 1.07157,0 1.83254,0.4659 0.7765,0.4659 1.18028,1.32005 0.41931,0.83862 0.41931,1.97231 v 0.82309 h -5.69951 q 0.03106,1.41323 0.71438,2.15867 0.69885,0.72991 1.94125,0.72991 0.79203,0 1.3977,-0.13977 0.6212,-0.1553 1.27346,-0.43484 v 1.19581 q -0.63673,0.27954 -1.25793,0.40378 -0.6212,0.13977 -1.47535,0.13977 -1.18028,0 -2.09655,-0.48143 -0.90074,-0.48143 -1.41323,-1.42876 -0.49696,-0.96286 -0.49696,-2.34503 0,-1.36664 0.45037,-2.34503 0.4659,-0.97839 1.28899,-1.50641 0.83862,-0.52802 1.94125,-0.52802 z m -0.01553,1.11816 q -0.97839,0 -1.553,0.63673 -0.55908,0.6212 -0.66779,1.73936 h 4.23969 q 0,-0.71438 -0.21742,-1.2424 -0.21742,-0.52802 -0.66779,-0.82309 -0.43484,-0.3106 -1.13369,-0.3106 z m 7.221431,3.106 -2.87305,-4.06886 h 1.553 l 2.14314,3.13706 2.127609,-3.13706 h 1.53747 l -2.873049,4.06886 3.028349,4.25522 h -1.553 l -2.267379,-3.32342 -2.29844,3.32342 h -1.53747 z m 9.395638,-4.20863 q 1.52194,0 2.25185,0.66779 0.72991,0.66779 0.72991,2.12761 v 5.66845 h -0.99392 l -0.26401,-1.18028 h -0.06212 q -0.35719,0.45037 -0.74544,0.76097 -0.37272,0.29507 -0.86968,0.43484 -0.48143,0.13977 -1.18028,0.13977 -0.74544,0 -1.35111,-0.26401 -0.59014,-0.26401 -0.9318,-0.80756 -0.34166,-0.55908 -0.34166,-1.3977 0,-1.2424 0.97839,-1.91019 0.97839,-0.68332 3.01282,-0.74544 l 1.41323,-0.0466 v -0.49696 q 0,-1.04051 -0.45037,-1.44429 -0.45037,-0.40378 -1.27346,-0.40378 -0.65226,0 -1.2424,0.20189 -0.59014,0.18636 -1.10263,0.43484 l -0.41931,-1.02498 q 0.54355,-0.29507 1.28899,-0.49696 0.74544,-0.21742 1.553,-0.21742 z m 0.40378,4.44158 q -1.553,0.0621 -2.15867,0.49696 -0.59014,0.43484 -0.59014,1.22687 0,0.69885 0.41931,1.02498 0.43484,0.32613 1.10263,0.32613 1.05604,0 1.75489,-0.57461 0.69885,-0.59014 0.69885,-1.80148 v -0.74544 z m 9.162715,-4.45711 q 1.49088,0 2.25185,0.72991 0.76097,0.71438 0.76097,2.3295 v 5.41997 h -1.35111 v -5.32679 q 0,-1.00945 -0.45037,-1.50641 -0.45037,-0.49696 -1.41323,-0.49696 -1.38217,0 -1.91019,0.7765 -0.52802,0.7765 -0.52802,2.23632 v 4.31734 h -1.36664 v -8.32408 h 1.10263 l 0.20189,1.13369 h 0.07765 q 0.27954,-0.43484 0.68332,-0.71438 0.41931,-0.29507 0.91627,-0.43484 0.49696,-0.13977 1.02498,-0.13977 z m 8.541498,8.63468 q -1.553,0 -2.4848,-1.07157 -0.9318,-1.0871 -0.9318,-3.23024 0,-2.14314 0.9318,-3.23024 0.94733,-1.10263 2.50033,-1.10263 0.65226,0 1.13369,0.17083 0.48143,0.1553 0.83862,0.43484 0.35719,0.27954 0.60567,0.6212 h 0.09318 q -0.01553,-0.20189 -0.06212,-0.59014 -0.03106,-0.40378 -0.03106,-0.63673 v -3.32342 h 1.36664 v 11.8028 h -1.10263 l -0.20189,-1.11816 h -0.06212 q -0.24848,0.35719 -0.60567,0.65226 -0.35719,0.27954 -0.85415,0.45037 -0.48143,0.17083 -1.13369,0.17083 z m 0.21742,-1.13369 q 1.32005,0 1.84807,-0.71438 0.54355,-0.72991 0.54355,-2.18973 v -0.24848 q 0,-1.553 -0.51249,-2.37609 -0.51249,-0.83862 -1.89466,-0.83862 -1.10263,0 -1.66171,0.88521 -0.54355,0.86968 -0.54355,2.34503 0,1.49088 0.54355,2.31397 0.55908,0.82309 1.67724,0.82309 z m 9.597536,-7.50099 q 1.07157,0 1.83254,0.4659 0.7765,0.4659 1.18028,1.32005 0.41931,0.83862 0.41931,1.97231 v 0.82309 h -5.69951 q 0.03106,1.41323 0.71438,2.15867 0.69885,0.72991 1.94125,0.72991 0.79203,0 1.3977,-0.13977 0.6212,-0.1553 1.27346,-0.43484 v 1.19581 q -0.63673,0.27954 -1.25793,0.40378 -0.6212,0.13977 -1.47535,0.13977 -1.18028,0 -2.09655,-0.48143 -0.90074,-0.48143 -1.41323,-1.42876 -0.49696,-0.96286 -0.49696,-2.34503 0,-1.36664 0.45037,-2.34503 0.4659,-0.97839 1.28899,-1.50641 0.83862,-0.52802 1.94125,-0.52802 z m -0.01553,1.11816 q -0.97839,0 -1.553,0.63673 -0.55908,0.6212 -0.66779,1.73936 h 4.23969 q 0,-0.71438 -0.21742,-1.2424 -0.21742,-0.52802 -0.66779,-0.82309 -0.43484,-0.3106 -1.13369,-0.3106 z m 9.442231,-1.11816 q 0.23295,0 0.49696,0.0311 0.27954,0.0155 0.48143,0.0621 l -0.17083,1.25793 q -0.20189,-0.0466 -0.45037,-0.0777 -0.23295,-0.0311 -0.45037,-0.0311 -0.48143,0 -0.91627,0.20189 -0.43484,0.20189 -0.7765,0.57461 -0.34166,0.35719 -0.54355,0.86968 -0.18636,0.51249 -0.18636,1.14922 v 4.44158 h -1.36664 v -8.32408 h 1.11816 l 0.1553,1.52194 h 0.06212 q 0.26401,-0.4659 0.63673,-0.83862 0.37272,-0.38825 0.85415,-0.60567 0.48143,-0.23295 1.05604,-0.23295 z m 5.311257,7.51652 q 0.3106,0 0.63673,-0.0466 0.32613,-0.0621 0.52802,-0.12424 v 1.04051 q -0.21742,0.10871 -0.6212,0.17083 -0.40378,0.0777 -0.7765,0.0777 -0.65226,0 -1.21134,-0.21742 -0.54355,-0.23295 -0.88521,-0.79203 -0.34166,-0.55908 -0.34166,-1.56853 v -4.84536 h -1.18028 V 192.849 l 1.19581,-0.54355 0.54355,-1.77042 h 0.80756 v 1.91019 h 2.40715 v 1.05604 h -2.40715 v 4.8143 q 0,0.76097 0.35719,1.13369 0.37272,0.35719 0.94733,0.35719 z m 4.193101,-7.37675 q 0,0.29507 -0.03106,0.60567 -0.01553,0.3106 -0.04659,0.55908 h 0.09318 q 0.26401,-0.43484 0.66779,-0.71438 0.40378,-0.27954 0.90074,-0.41931 0.49696,-0.1553 1.02498,-0.1553 1.00945,0 1.67724,0.32613 0.68332,0.3106 1.02498,0.97839 0.34166,0.66779 0.34166,1.73936 v 5.41997 h -1.35111 v -5.32679 q 0,-1.00945 -0.45037,-1.50641 -0.45037,-0.49696 -1.41323,-0.49696 -0.9318,0 -1.45982,0.35719 -0.52802,0.34166 -0.76097,1.02498 -0.21742,0.66779 -0.21742,1.64618 v 4.30181 h -1.36664 v -11.8028 h 1.36664 z m 11.445615,-0.13977 q 1.07157,0 1.83254,0.4659 0.7765,0.4659 1.18028,1.32005 0.41931,0.83862 0.41931,1.97231 v 0.82309 h -5.69951 q 0.0311,1.41323 0.71438,2.15867 0.69885,0.72991 1.94125,0.72991 0.79203,0 1.3977,-0.13977 0.6212,-0.1553 1.27346,-0.43484 v 1.19581 q -0.63673,0.27954 -1.25793,0.40378 -0.6212,0.13977 -1.47535,0.13977 -1.18028,0 -2.09655,-0.48143 -0.90074,-0.48143 -1.41323,-1.42876 -0.49696,-0.96286 -0.49696,-2.34503 0,-1.36664 0.45037,-2.34503 0.4659,-0.97839 1.28899,-1.50641 0.83862,-0.52802 1.94125,-0.52802 z m -0.0155,1.11816 q -0.97839,0 -1.553,0.63673 -0.55908,0.6212 -0.66779,1.73936 h 4.23969 q 0,-0.71438 -0.21742,-1.2424 -0.21742,-0.52802 -0.66779,-0.82309 -0.43484,-0.3106 -1.13369,-0.3106 z m 10.97969,5.06278 q 0,0.80756 -0.40378,1.35111 -0.40378,0.54355 -1.14922,0.82309 -0.74544,0.27954 -1.77042,0.27954 -0.86968,0 -1.50641,-0.13977 -0.6212,-0.13977 -1.10263,-0.38825 v -1.2424 q 0.49696,0.24848 1.19581,0.4659 0.71438,0.20189 1.44429,0.20189 1.04051,0 1.50641,-0.32613 0.4659,-0.34166 0.4659,-0.90074 0,-0.3106 -0.17083,-0.55908 -0.17083,-0.24848 -0.6212,-0.49696 -0.43484,-0.24848 -1.25793,-0.55908 -0.80756,-0.3106 -1.38217,-0.6212 -0.57461,-0.3106 -0.88521,-0.74544 -0.3106,-0.43484 -0.3106,-1.11816 0,-1.05604 0.85415,-1.63065 0.86968,-0.57461 2.26738,-0.57461 0.76097,0 1.41323,0.1553 0.66779,0.13977 1.2424,0.40378 l -0.4659,1.0871 q -0.52802,-0.21742 -1.10263,-0.37272 -0.57461,-0.1553 -1.18028,-0.1553 -0.83862,0 -1.28899,0.27954 -0.43484,0.26401 -0.43484,0.72991 0,0.34166 0.20189,0.59014 0.20189,0.23295 0.66779,0.4659 0.48143,0.21742 1.27346,0.52802 0.79203,0.29507 1.35111,0.60567 0.55908,0.3106 0.85415,0.76097 0.29507,0.43484 0.29507,1.10263 z m 5.23361,-6.18094 q 1.07157,0 1.83254,0.4659 0.7765,0.4659 1.18028,1.32005 0.41931,0.83862 0.41931,1.97231 v 0.82309 h -5.69951 q 0.0311,1.41323 0.71438,2.15867 0.69885,0.72991 1.94125,0.72991 0.79203,0 1.3977,-0.13977 0.6212,-0.1553 1.27346,-0.43484 v 1.19581 q -0.63673,0.27954 -1.25793,0.40378 -0.6212,0.13977 -1.47535,0.13977 -1.18028,0 -2.09655,-0.48143 -0.90074,-0.48143 -1.41323,-1.42876 -0.49696,-0.96286 -0.49696,-2.34503 0,-1.36664 0.45037,-2.34503 0.4659,-0.97839 1.28899,-1.50641 0.83862,-0.52802 1.94125,-0.52802 z m -0.0155,1.11816 q -0.97839,0 -1.553,0.63673 -0.55908,0.6212 -0.66779,1.73936 h 4.23969 q 0,-0.71438 -0.21742,-1.2424 -0.21742,-0.52802 -0.66779,-0.82309 -0.43484,-0.3106 -1.13369,-0.3106 z m 9.56647,-1.11816 q 1.49088,0 2.25185,0.72991 0.76097,0.71438 0.76097,2.3295 v 5.41997 h -1.35111 v -5.32679 q 0,-1.00945 -0.45037,-1.50641 -0.45037,-0.49696 -1.41323,-0.49696 -1.38217,0 -1.91019,0.7765 -0.52802,0.7765 -0.52802,2.23632 v 4.31734 h -1.36664 v -8.32408 h 1.10263 l 0.20189,1.13369 h 0.0777 q 0.27954,-0.43484 0.68332,-0.71438 0.41931,-0.29507 0.91627,-0.43484 0.49696,-0.13977 1.02498,-0.13977 z m 11.01077,6.18094 q 0,0.80756 -0.40378,1.35111 -0.40378,0.54355 -1.14922,0.82309 -0.74544,0.27954 -1.77042,0.27954 -0.86968,0 -1.50641,-0.13977 -0.6212,-0.13977 -1.10263,-0.38825 v -1.2424 q 0.49696,0.24848 1.19581,0.4659 0.71438,0.20189 1.44429,0.20189 1.04051,0 1.50641,-0.32613 0.4659,-0.34166 0.4659,-0.90074 0,-0.3106 -0.17083,-0.55908 -0.17083,-0.24848 -0.6212,-0.49696 -0.43484,-0.24848 -1.25793,-0.55908 -0.80756,-0.3106 -1.38217,-0.6212 -0.57461,-0.3106 -0.88521,-0.74544 -0.3106,-0.43484 -0.3106,-1.11816 0,-1.05604 0.85415,-1.63065 0.86968,-0.57461 2.26738,-0.57461 0.76097,0 1.41323,0.1553 0.66779,0.13977 1.2424,0.40378 l -0.4659,1.0871 q -0.52802,-0.21742 -1.10263,-0.37272 -0.57461,-0.1553 -1.18028,-0.1553 -0.83862,0 -1.28899,0.27954 -0.43484,0.26401 -0.43484,0.72991 0,0.34166 0.20189,0.59014 0.20189,0.23295 0.66779,0.4659 0.48143,0.21742 1.27346,0.52802 0.79203,0.29507 1.35111,0.60567 0.55908,0.3106 0.85415,0.76097 0.29507,0.43484 0.29507,1.10263 z m 5.23361,-6.18094 q 1.07157,0 1.83254,0.4659 0.7765,0.4659 1.18028,1.32005 0.41931,0.83862 0.41931,1.97231 v 0.82309 h -5.69951 q 0.0311,1.41323 0.71438,2.15867 0.69885,0.72991 1.94125,0.72991 0.79203,0 1.3977,-0.13977 0.6212,-0.1553 1.27346,-0.43484 v 1.19581 q -0.63673,0.27954 -1.25793,0.40378 -0.6212,0.13977 -1.47535,0.13977 -1.18028,0 -2.09655,-0.48143 -0.90074,-0.48143 -1.41323,-1.42876 -0.49696,-0.96286 -0.49696,-2.34503 0,-1.36664 0.45037,-2.34503 0.4659,-0.97839 1.28899,-1.50641 0.83862,-0.52802 1.94125,-0.52802 z m -0.0155,1.11816 q -0.97839,0 -1.553,0.63673 -0.55908,0.6212 -0.66779,1.73936 h 4.23969 q 0,-0.71438 -0.21742,-1.2424 -0.21742,-0.52802 -0.66779,-0.82309 -0.43484,-0.3106 -1.13369,-0.3106 z m 6.92637,-0.96286 v 8.32408 h -1.36664 v -8.32408 z m -0.66779,-3.12153 q 0.3106,0 0.54355,0.21742 0.24848,0.20189 0.24848,0.65226 0,0.43484 -0.24848,0.65226 -0.23295,0.21742 -0.54355,0.21742 -0.34166,0 -0.57461,-0.21742 -0.23295,-0.21742 -0.23295,-0.65226 0,-0.45037 0.23295,-0.65226 0.23295,-0.21742 0.57461,-0.21742 z m 7.60969,0.35719 -4.13098,11.08842 h -1.33558 l 4.13098,-11.08842 z"
         id="path3" />
      <path
         style="text-align:center;text-anchor:middle"
         d="m 79.935591,211.70242 q 1.41323,0 2.11208,0.72991 0.69885,0.71438 0.69885,2.3295 v 5.41997 h -1.35111 v -5.35785 q 0,-0.97839 -0.41931,-1.47535 -0.40378,-0.49696 -1.27346,-0.49696 -1.21134,0 -1.73936,0.69885 -0.51249,0.69885 -0.51249,2.03443 v 4.59688 h -1.35111 v -5.35785 q 0,-0.65226 -0.18636,-1.0871 -0.18636,-0.45037 -0.55908,-0.66779 -0.37272,-0.21742 -0.96286,-0.21742 -0.83862,0 -1.32005,0.35719 -0.48143,0.34166 -0.69885,1.00945 -0.20189,0.66779 -0.20189,1.64618 v 4.31734 h -1.36664 v -8.32408 h 1.10263 l 0.20189,1.13369 h 0.07765 q 0.26401,-0.43484 0.63673,-0.71438 0.38825,-0.29507 0.85415,-0.43484 0.4659,-0.13977 0.96286,-0.13977 0.96286,0 1.59959,0.34166 0.65226,0.34166 0.94733,1.05604 h 0.07765 q 0.41931,-0.71438 1.13369,-1.05604 0.72991,-0.34166 1.53747,-0.34166 z m 8.541491,0.0155 q 1.52194,0 2.25185,0.66779 0.72991,0.66779 0.72991,2.12761 v 5.66845 h -0.99392 l -0.26401,-1.18028 h -0.06212 q -0.35719,0.45037 -0.74544,0.76097 -0.37272,0.29507 -0.86968,0.43484 -0.48143,0.13977 -1.18028,0.13977 -0.74544,0 -1.35111,-0.26401 -0.59014,-0.26401 -0.9318,-0.80756 -0.34166,-0.55908 -0.34166,-1.3977 0,-1.2424 0.97839,-1.91019 0.97839,-0.68332 3.01282,-0.74544 l 1.41323,-0.0466 v -0.49696 q 0,-1.04051 -0.45037,-1.44429 -0.45037,-0.40378 -1.27346,-0.40378 -0.65226,0 -1.2424,0.20189 -0.59014,0.18636 -1.10263,0.43484 l -0.41931,-1.02498 q 0.54355,-0.29507 1.28899,-0.49696 0.74544,-0.21742 1.553,-0.21742 z m 0.40378,4.44158 q -1.553,0.0621 -2.15867,0.49696 -0.59014,0.43484 -0.59014,1.22687 0,0.69885 0.41931,1.02498 0.43484,0.32613 1.10263,0.32613 1.05604,0 1.75489,-0.57461 0.69885,-0.59014 0.69885,-1.80148 v -0.74544 z m 9.116123,-4.45711 q 1.537469,0 2.469265,1.07157 0.94733,1.07157 0.94733,3.23024 0,1.41323 -0.43484,2.39162 -0.41931,0.96286 -1.195806,1.45982 -0.76097,0.48143 -1.801479,0.48143 -0.63673,0 -1.13369,-0.17083 -0.49696,-0.17083 -0.85415,-0.43484 -0.34166,-0.27954 -0.59014,-0.60567 h -0.09318 q 0.03106,0.26401 0.06212,0.66779 0.03106,0.40378 0.03106,0.69885 v 3.4166 h -1.36664 v -12.05128 h 1.11816 l 0.18636,1.13369 h 0.06212 q 0.24848,-0.35719 0.59014,-0.65226 0.35719,-0.29507 0.83862,-0.4659 0.49696,-0.17083 1.16475,-0.17083 z m -0.24848,1.14922 q -0.83862,0 -1.35111,0.32613 -0.51249,0.3106 -0.74544,0.94733 -0.23295,0.63673 -0.24848,1.61512 v 0.26401 q 0,1.02498 0.21742,1.73936 0.21742,0.71438 0.72991,1.0871 0.52802,0.37272 1.42876,0.37272 0.76097,0 1.242399,-0.41931 0.49696,-0.41931 0.72991,-1.13369 0.248476,-0.72991 0.248476,-1.66171 0,-1.42876 -0.559076,-2.28291 -0.543549,-0.85415 -1.692769,-0.85415 z"
         id="path4" />
    </g>
    <text
       xml:space="preserve"
       style="font-size:15.53px;text-align:start;text-anchor:start;display:none;fill:#000000;fill-opacity:1;stroke-width:1.29416"
       x="424.90259"
       y="113.69844"
       id="text18"><tspan
         sodipodi:role="line"
         style="text-align:center;text-anchor:middle;fill:#000000;stroke-width:1.29416"
         x="424.90259"
         y="113.69844"
         id="tspan17">Пример:</tspan><tspan
         sodipodi:role="line"
         style="text-align:center;text-anchor:middle;fill:#000000;stroke-width:1.29416"
         x="424.90259"
         y="133.11095"
         id="tspan18">2,5D карта</tspan></text>
    <path
       style="font-size:15.53px;text-align:center;text-anchor:middle;fill:#ffffff;stroke-width:1.29416"
       d="m 113.26477,100.32279 h -1.67724 l -5.01619,-5.621859 v 5.621859 h -1.3977 V 89.234371 h 1.3977 v 5.37338 l 4.89195,-5.37338 h 1.58406 l -4.8143,5.38891 z m 0.0155,-8.324079 h 1.45982 l 1.80148,4.73665 c 0.10353,0.27954 0.19671,0.54873 0.27954,0.80756 0.0932,0.25883 0.17601,0.51249 0.24848,0.76097 0.0725,0.23813 0.12942,0.47108 0.17083,0.69885 h 0.0621 c 0.0621,-0.25883 0.16049,-0.59532 0.29507,-1.00945 0.13459,-0.42449 0.27436,-0.84897 0.41931,-1.27346 l 1.69277,-4.72112 h 1.47535 l -3.58743,9.473299 c -0.19671,0.51767 -0.42966,0.96804 -0.69885,1.35111 -0.25883,0.39343 -0.57979,0.69367 -0.96286,0.90074 -0.37272,0.21742 -0.82827,0.32613 -1.36664,0.32613 -0.24848,0 -0.4659,-0.0155 -0.65226,-0.0466 -0.18636,-0.0207 -0.34684,-0.0466 -0.48143,-0.0777 v -1.0871 c 0.11389,0.0207 0.24848,0.0414 0.40378,0.0621 0.16565,0.0207 0.33648,0.0311 0.51249,0.0311 0.32095,0 0.59532,-0.0621 0.82309,-0.18636 0.23813,-0.11389 0.44002,-0.28472 0.60567,-0.51249 0.16565,-0.21742 0.30542,-0.47625 0.41931,-0.7765 l 0.43484,-1.10263 z m 8.78998,3.32342 c 0,-1.21134 0.11906,-2.2415 0.35719,-3.09047 0.24848,-0.85933 0.62638,-1.54265 1.13369,-2.04996 0.51767,-0.51767 1.18028,-0.8645 1.98784,-1.04051 0.67297,-0.14495 1.3304,-0.27436 1.97231,-0.38825 0.64191,-0.11389 1.2424,-0.21742 1.80148,-0.3106 l 0.23295,1.19581 c -0.26919,0.0414 -0.56943,0.0932 -0.90074,0.1553 -0.33131,0.0517 -0.66779,0.10868 -1.00945,0.17083 -0.34166,0.0518 -0.67297,0.10874 -0.99392,0.17083 -0.3106,0.0518 -0.58496,0.10357 -0.82309,0.1553 -0.44519,0.0932 -0.83344,0.27954 -1.16475,0.55908 -0.33131,0.26919 -0.59014,0.65744 -0.7765,1.16475 -0.18636,0.49696 -0.29507,1.13369 -0.32613,1.91019 h 0.0932 c 0.14495,-0.19671 0.34166,-0.3986 0.59014,-0.60567 0.25883,-0.20707 0.56426,-0.38307 0.91627,-0.52802 0.36237,-0.14495 0.77132,-0.21742 1.22687,-0.21742 0.72473,0 1.32523,0.16048 1.80148,0.48143 0.48661,0.3106 0.84897,0.74544 1.0871,1.30452 0.24848,0.55908 0.37272,1.21134 0.37272,1.95678 0,0.92145 -0.16048,1.69277 -0.48143,2.31397 -0.32095,0.6212 -0.76615,1.0871 -1.33558,1.397699 -0.56943,0.30025 -1.23205,0.45037 -1.98784,0.45037 -0.56943,0 -1.0871,-0.10871 -1.553,-0.32613 -0.4659,-0.227769 -0.8645,-0.559079 -1.19581,-0.993919 -0.33131,-0.43484 -0.58496,-0.97321 -0.76097,-1.61512 -0.17601,-0.64191 -0.26401,-1.38217 -0.26401,-2.22079 z m 3.8825,4.02227 c 0.45555,0 0.84897,-0.0932 1.18028,-0.27954 0.34166,-0.18636 0.60567,-0.49178 0.79203,-0.91627 0.18636,-0.42449 0.27954,-0.98874 0.27954,-1.69277 0,-0.84897 -0.16048,-1.51676 -0.48143,-2.00337 -0.3106,-0.49696 -0.82827,-0.74544 -1.553,-0.74544 -0.45555,0 -0.86968,0.10353 -1.2424,0.3106 -0.37272,0.19671 -0.68332,0.42449 -0.9318,0.68332 -0.24848,0.25883 -0.42449,0.47625 -0.52802,0.65226 0,0.50731 0.0362,0.9991 0.10871,1.47535 0.0725,0.47625 0.19671,0.90592 0.37272,1.28899 0.18636,0.37272 0.44002,0.67297 0.76097,0.90074 0.33131,0.21742 0.74544,0.32613 1.2424,0.32613 z m 12.29978,-10.11003 v 1.2424 h -4.86089 v 9.846019 h -1.3977 V 89.234371 Z m 5.69951,11.088419 h -1.3977 v -9.861549 h -3.46319 v -1.22687 h 8.30855 v 1.22687 h -3.44766 z m 9.76837,-3.152589 c -0.33131,0.73509 -0.66779,1.35111 -1.00945,1.84807 -0.33131,0.48661 -0.72473,0.85415 -1.18028,1.102629 -0.45555,0.23813 -1.03533,0.35719 -1.73936,0.35719 -0.28989,0 -0.56426,-0.0207 -0.82309,-0.0621 -0.24848,-0.0414 -0.47625,-0.0983 -0.68332,-0.17083 v -1.382169 c 0.20707,0.0932 0.42966,0.17083 0.66779,0.23295 0.23813,0.0517 0.48661,0.0776 0.74544,0.0776 0.38307,0 0.7092,-0.0518 0.97839,-0.1553 0.27954,-0.11389 0.52284,-0.29507 0.72991,-0.54355 0.21742,-0.24848 0.41931,-0.57979 0.60567,-0.99392 l -4.27075,-8.24643 h 1.53747 l 3.09047,6.10329 c 0.0414,0.0725 0.0828,0.16048 0.12424,0.26401 0.0414,0.0932 0.0828,0.19154 0.12424,0.29507 0.0518,0.10353 0.0932,0.20189 0.12424,0.29507 h 0.0621 c 0.0311,-0.0725 0.0621,-0.1553 0.0932,-0.24848 0.0414,-0.10353 0.0776,-0.20189 0.10871,-0.29507 0.0414,-0.10353 0.0776,-0.19154 0.10871,-0.26401 l 2.67116,-6.14988 h 1.47535 z"
       id="path11"
       sodipodi:nodetypes="ccccccccccccccccccccccccccsccccscccccscscsccccccccccccsccsscscssssscsscscscsccscccccccccccccccccccsccccscccccccccccccccc" />
  </g>
</svg>
